<svg viewBox="0 0 96 95" fill="none" xmlns="http://www.w3.org/2000/svg">
<path fill-rule="evenodd" clip-rule="evenodd" d="M62.32 31.23C45.2923 31.23 31.49 45.0323 31.49 62.06C31.49 79.0877 45.2923 92.89 62.32 92.89C79.3477 92.89 93.15 79.0877 93.15 62.06C93.15 45.0323 79.3477 31.23 62.32 31.23ZM29.49 62.06C29.49 43.9277 44.1877 29.23 62.32 29.23C80.4523 29.23 95.15 43.9277 95.15 62.06C95.15 80.1923 80.4523 94.89 62.32 94.89C44.1877 94.89 29.49 80.1923 29.49 62.06Z" fill="#201A17"/>
<path fill-rule="evenodd" clip-rule="evenodd" d="M28.81 17.93C29.3623 17.93 29.81 18.3777 29.81 18.93V49.12C29.81 49.6723 29.3623 50.12 28.81 50.12C28.2577 50.12 27.81 49.6723 27.81 49.12V18.93C27.81 18.3777 28.2577 17.93 28.81 17.93Z" fill="#201A17"/>
<path fill-rule="evenodd" clip-rule="evenodd" d="M27.81 18.93C27.81 18.3777 28.2577 17.93 28.81 17.93H34.46C39.6907 17.93 43.94 22.1662 43.94 27.4C43.94 32.6323 39.6923 36.88 34.46 36.88H23.31C22.7577 36.88 22.31 36.4323 22.31 35.88C22.31 35.3277 22.7577 34.88 23.31 34.88H34.46C38.5877 34.88 41.94 31.5277 41.94 27.4C41.94 23.2738 38.5892 19.93 34.46 19.93H28.81C28.2577 19.93 27.81 19.4823 27.81 18.93Z" fill="#201A17"/>
<path fill-rule="evenodd" clip-rule="evenodd" d="M22.31 41.18C22.31 40.6277 22.7577 40.18 23.31 40.18H37.91C38.4623 40.18 38.91 40.6277 38.91 41.18C38.91 41.7323 38.4623 42.18 37.91 42.18H23.31C22.7577 42.18 22.31 41.7323 22.31 41.18Z" fill="#201A17"/>
<path fill-rule="evenodd" clip-rule="evenodd" d="M0 32.82C0 14.6979 14.6975 -0.0100098 32.83 -0.0100098C50.087 -0.0100098 64.2267 13.3165 65.547 30.2422C65.5696 30.5318 65.4651 30.8169 65.2608 31.0234C65.0564 31.2299 64.7724 31.3373 64.4826 31.3177C63.7497 31.2682 63.0361 31.23 62.32 31.23C61.2666 31.23 60.2211 31.288 59.1932 31.3946C58.9273 31.4222 58.6615 31.3422 58.455 31.1725C58.2485 31.0027 58.1185 30.7574 58.0942 30.4912C56.9108 17.5707 46.0478 7.44999 32.83 7.44999C18.812 7.44999 7.45 18.8125 7.45 32.82C7.45 46.1251 17.6865 57.0359 30.7124 58.1134C30.9785 58.1354 31.2247 58.2629 31.3962 58.4674C31.5677 58.6719 31.6504 58.9366 31.6257 59.2024C31.5383 60.1444 31.49 61.0935 31.49 62.06C31.49 62.8783 31.5285 63.68 31.5965 64.4859C31.621 64.7768 31.5172 65.0639 31.3123 65.2719C31.1074 65.4798 30.8219 65.5878 30.5306 65.5676C13.4707 64.3814 0 50.1795 0 32.82ZM32.83 1.98999C15.8025 1.98999 2 15.8021 2 32.82C2 48.7302 14.0508 61.8182 29.5246 63.4715C29.5021 63.0058 29.49 62.5363 29.49 62.06C29.49 61.3663 29.5133 60.6828 29.5566 60.0065C15.9779 58.3865 5.45 46.8357 5.45 32.82C5.45 17.7075 17.708 5.44999 32.83 5.44999C46.7523 5.44999 58.2492 15.855 59.9769 29.3174C60.7496 29.2603 61.5319 29.23 62.32 29.23C62.6983 29.23 63.0726 29.2397 63.4426 29.2555C61.6719 13.908 48.6428 1.98999 32.83 1.98999Z" fill="#201A17"/>
<path d="M88.7 62.06C88.7 76.63 76.89 88.44 62.32 88.44C47.75 88.44 35.94 76.63 35.94 62.06C35.94 47.49 47.75 35.68 62.32 35.68C76.89 35.68 88.7 47.49 88.7 62.06Z" fill="#EC5D4F"/>
<path fill-rule="evenodd" clip-rule="evenodd" d="M62.32 36.68C48.3023 36.68 36.94 48.0423 36.94 62.06C36.94 76.0777 48.3023 87.44 62.32 87.44C76.3377 87.44 87.7 76.0777 87.7 62.06C87.7 48.0423 76.3377 36.68 62.32 36.68ZM34.94 62.06C34.94 46.9377 47.1977 34.68 62.32 34.68C77.4423 34.68 89.7 46.9377 89.7 62.06C89.7 77.1823 77.4423 89.44 62.32 89.44C47.1977 89.44 34.94 77.1823 34.94 62.06Z" fill="#201A17"/>
<path fill-rule="evenodd" clip-rule="evenodd" d="M59.14 47.11C59.6923 47.11 60.14 47.5577 60.14 48.11V78.3C60.14 78.8523 59.6923 79.3 59.14 79.3C58.5877 79.3 58.14 78.8523 58.14 78.3V48.11C58.14 47.5577 58.5877 47.11 59.14 47.11Z" fill="#201A17"/>
<path fill-rule="evenodd" clip-rule="evenodd" d="M58.14 48.11C58.14 47.5577 58.5877 47.11 59.14 47.11H64.79C70.0207 47.11 74.27 51.3462 74.27 56.58C74.27 61.8123 70.0223 66.06 64.79 66.06H53.64C53.0877 66.06 52.64 65.6123 52.64 65.06C52.64 64.5077 53.0877 64.06 53.64 64.06H64.79C68.9177 64.06 72.27 60.7077 72.27 56.58C72.27 52.4538 68.9193 49.11 64.79 49.11H59.14C58.5877 49.11 58.14 48.6623 58.14 48.11Z" fill="#201A17"/>
<path fill-rule="evenodd" clip-rule="evenodd" d="M52.64 70.36C52.64 69.8077 53.0877 69.36 53.64 69.36H69.74C70.2923 69.36 70.74 69.8077 70.74 70.36C70.74 70.9123 70.2923 71.36 69.74 71.36H53.64C53.0877 71.36 52.64 70.9123 52.64 70.36Z" fill="#201A17"/>
</svg>
