<svg viewBox="0 0 103 78" fill="none" xmlns="http://www.w3.org/2000/svg">
<path fill-rule="evenodd" clip-rule="evenodd" d="M69.95 28.29C69.95 27.7377 70.3977 27.29 70.95 27.29H89.28C90.6555 27.29 91.9547 28.0095 92.6684 29.2071C92.6687 29.2075 92.6689 29.2079 92.6692 29.2084L102.292 45.2838C102.648 45.8903 102.85 46.5941 102.85 47.31V69.74C102.85 70.287 102.41 70.7325 101.863 70.7399L92.9635 70.8599C92.4112 70.8674 91.9575 70.4257 91.9501 69.8735C91.9426 69.3213 92.3843 68.8675 92.9365 68.8601L100.85 68.7534V47.31C100.85 46.9672 100.752 46.6123 100.57 46.2996L90.952 30.2336L90.9508 30.2317C90.6044 29.65 89.964 29.29 89.28 29.29H71.95V69.0664L79.8265 68.9601C80.3787 68.9526 80.8325 69.3943 80.8399 69.9465C80.8474 70.4987 80.4057 70.9525 79.8535 70.9599L70.9635 71.0799C70.696 71.0835 70.4381 70.9798 70.2477 70.7919C70.0572 70.604 69.95 70.3476 69.95 70.08V28.29Z" fill="#201A17"/>
<path fill-rule="evenodd" clip-rule="evenodd" d="M79.6 49.65C79.6 49.0977 80.0477 48.65 80.6 48.65H83.02C83.5723 48.65 84.02 49.0977 84.02 49.65C84.02 50.2023 83.5723 50.65 83.02 50.65H80.6C80.0477 50.65 79.6 50.2023 79.6 49.65Z" fill="#201A17"/>
<path fill-rule="evenodd" clip-rule="evenodd" d="M78.84 70.08C78.84 65.9057 82.2297 62.53 86.4 62.53C90.5723 62.53 93.95 65.9077 93.95 70.08C93.95 74.2503 90.5743 77.64 86.4 77.64C82.2277 77.64 78.84 74.2523 78.84 70.08ZM86.4 64.53C83.3303 64.53 80.84 67.0143 80.84 70.08C80.84 73.1477 83.3323 75.64 86.4 75.64C89.4657 75.64 91.95 73.1497 91.95 70.08C91.95 67.0123 89.4677 64.53 86.4 64.53Z" fill="#201A17"/>
<path fill-rule="evenodd" clip-rule="evenodd" d="M84.24 70.08C84.24 68.8877 85.2077 67.92 86.4 67.92C87.5923 67.92 88.56 68.8877 88.56 70.08C88.56 71.2611 87.6034 72.25 86.4 72.25C85.1966 72.25 84.24 71.2611 84.24 70.08ZM86.4 69.92C86.3123 69.92 86.24 69.9923 86.24 70.08C86.24 70.1249 86.2577 70.1681 86.2913 70.2021C86.3243 70.2355 86.3624 70.25 86.4 70.25C86.4376 70.25 86.4757 70.2355 86.5087 70.2021C86.5423 70.1681 86.56 70.1249 86.56 70.08C86.56 69.9923 86.4877 69.92 86.4 69.92Z" fill="#201A17"/>
<path fill-rule="evenodd" clip-rule="evenodd" d="M7.52 58.81C7.52 58.2577 7.96772 57.81 8.52 57.81H70.5C71.0523 57.81 71.5 58.2577 71.5 58.81C71.5 59.3623 71.0523 59.81 70.5 59.81H9.52V69.05H13.7C14.2523 69.05 14.7 69.4977 14.7 70.05C14.7 70.6023 14.2523 71.05 13.7 71.05H8.52C7.96772 71.05 7.52 70.6023 7.52 70.05V58.81Z" fill="#201A17"/>
<path fill-rule="evenodd" clip-rule="evenodd" d="M25.81 70.05C25.81 69.4977 26.2577 69.05 26.81 69.05H70.5C71.0523 69.05 71.5 69.4977 71.5 70.05C71.5 70.6023 71.0523 71.05 70.5 71.05H26.81C26.2577 71.05 25.81 70.6023 25.81 70.05Z" fill="#201A17"/>
<path fill-rule="evenodd" clip-rule="evenodd" d="M96.37 58C96.37 57.4477 96.8177 57 97.37 57H101.85C102.402 57 102.85 57.4477 102.85 58C102.85 58.5523 102.402 59 101.85 59H98.37V63.13H101.85C102.402 63.13 102.85 63.5777 102.85 64.13C102.85 64.6823 102.402 65.13 101.85 65.13H97.37C96.8177 65.13 96.37 64.6823 96.37 64.13V58Z" fill="#201A17"/>
<path fill-rule="evenodd" clip-rule="evenodd" d="M10.24 41.37C10.7923 41.37 11.24 41.8177 11.24 42.37V58.81C11.24 59.3623 10.7923 59.81 10.24 59.81C9.68771 59.81 9.24 59.3623 9.24 58.81V42.37C9.24 41.8177 9.68771 41.37 10.24 41.37Z" fill="#201A17"/>
<path fill-rule="evenodd" clip-rule="evenodd" d="M40.31 20.65C40.31 20.0977 40.7577 19.65 41.31 19.65H65.82C69.2136 19.65 71.95 22.399 71.95 25.78V31.23C71.95 31.7823 71.5023 32.23 70.95 32.23C70.3977 32.23 69.95 31.7823 69.95 31.23V25.78C69.95 23.501 68.1064 21.65 65.82 21.65H41.31C40.7577 21.65 40.31 21.2023 40.31 20.65Z" fill="#201A17"/>
<path fill-rule="evenodd" clip-rule="evenodd" d="M0 26.88C0 16.6181 8.31734 8.29999 18.57 8.29999C26.5273 8.29999 33.3011 13.2779 35.9544 20.2938C36.738 22.3381 37.16 24.5689 37.16 26.88C37.16 37.1523 28.8423 45.47 18.57 45.47C15.3901 45.47 12.3872 44.6668 9.76485 43.2499M18.57 10.3C9.42266 10.3 2 17.7219 2 26.88C2 33.1983 5.52573 38.6878 10.7151 41.4901L10.7154 41.4902C13.053 42.7533 15.73 43.47 18.57 43.47C27.7377 43.47 35.16 36.0477 35.16 26.88C35.16 24.8117 34.7822 22.8231 34.0863 21.008L34.0846 21.0036C31.7172 14.7408 25.6717 10.3 18.57 10.3ZM0 26.88C0 33.9616 3.95417 40.112 9.76463 43.2498Z" fill="#201A17"/>
<path fill-rule="evenodd" clip-rule="evenodd" d="M16.3 1.98999C15.7323 1.98999 15.27 2.45227 15.27 3.01999V3.48999C15.27 4.05771 15.7323 4.51999 16.3 4.51999H20.85C21.4177 4.51999 21.88 4.05771 21.88 3.48999V3.01999C21.88 2.45227 21.4177 1.98999 20.85 1.98999H16.3ZM13.27 3.01999C13.27 1.34771 14.6277 -0.0100098 16.3 -0.0100098H20.85C22.5223 -0.0100098 23.88 1.34771 23.88 3.01999V3.48999C23.88 5.16227 22.5223 6.51999 20.85 6.51999H16.3C14.6277 6.51999 13.27 5.16227 13.27 3.48999V3.01999Z" fill="#201A17"/>
<path fill-rule="evenodd" clip-rule="evenodd" d="M16.89 4.51999C17.4423 4.51999 17.89 4.9677 17.89 5.51999V9.12999C17.89 9.68227 17.4423 10.13 16.89 10.13C16.3377 10.13 15.89 9.68227 15.89 9.12999V5.51999C15.89 4.9677 16.3377 4.51999 16.89 4.51999Z" fill="#201A17"/>
<path fill-rule="evenodd" clip-rule="evenodd" d="M20.26 4.51999C20.8123 4.51999 21.26 4.9677 21.26 5.51999V9.12999C21.26 9.68227 20.8123 10.13 20.26 10.13C19.7077 10.13 19.26 9.68227 19.26 9.12999V5.51999C19.26 4.9677 19.7077 4.51999 20.26 4.51999Z" fill="#201A17"/>
<path fill-rule="evenodd" clip-rule="evenodd" d="M31.995 6.89923L31.1192 7.77501L34.055 10.7108L34.9308 9.83501L31.995 6.89923ZM30.6529 5.41291C31.3934 4.67238 32.5966 4.67238 33.3371 5.41291L36.4171 8.49291C37.1576 9.23343 37.1576 10.4366 36.4171 11.1771L35.3971 12.1971C34.6566 12.9376 33.4534 12.9376 32.7129 12.1971L29.6329 9.11712C28.8924 8.3766 28.8924 7.17343 29.6329 6.43291L30.34 7.14001L29.6329 6.43291L30.6529 5.41291Z" fill="#201A17"/>
<path fill-rule="evenodd" clip-rule="evenodd" d="M31.7384 8.39424C32.1282 8.78551 32.127 9.41867 31.7358 9.80845L29.0958 12.4385C28.7045 12.8282 28.0713 12.827 27.6816 12.4358C27.2918 12.0445 27.293 11.4113 27.6842 11.0216L30.3242 8.39156C30.7155 8.00178 31.3487 8.00298 31.7384 8.39424Z" fill="#201A17"/>
<path fill-rule="evenodd" clip-rule="evenodd" d="M33.4384 10.0942C33.8282 10.4855 33.827 11.1187 33.4358 11.5084L30.7958 14.1384C30.4045 14.5282 29.7713 14.527 29.3816 14.1358C28.9918 13.7445 28.993 13.1113 29.3842 12.7215L32.0242 10.0915C32.4155 9.70176 33.0487 9.70296 33.4384 10.0942Z" fill="#201A17"/>
<path fill-rule="evenodd" clip-rule="evenodd" d="M3.81289 5.41291C4.55342 4.67238 5.75658 4.67238 6.4971 5.41291L7.5171 6.43291C8.25763 7.17343 8.25763 8.3766 7.5171 9.11712L4.4371 12.1971C3.69658 12.9376 2.49342 12.9376 1.75289 12.1971L0.732891 11.1771L1.44 10.47L0.732891 11.1771C-0.00763321 10.4366 -0.00763321 9.23343 0.732891 8.49291L3.81289 5.41291ZM2.21921 9.83501L3.095 10.7108L6.03078 7.77501L5.155 6.89923L2.21921 9.83501ZM6.10289 7.84712C6.10286 7.84709 6.10283 7.84706 6.10279 7.84702Z" fill="#201A17"/>
<path fill-rule="evenodd" clip-rule="evenodd" d="M5.41156 8.39424C5.80134 8.00298 6.4345 8.00178 6.82577 8.39156L9.46577 11.0216C9.85703 11.4113 9.85823 12.0445 9.46845 12.4358C9.07867 12.827 8.4455 12.8282 8.05424 12.4385L5.41424 9.80845C5.02297 9.41867 5.02177 8.78551 5.41156 8.39424Z" fill="#201A17"/>
<path fill-rule="evenodd" clip-rule="evenodd" d="M3.71155 10.0942C4.10133 9.70296 4.7345 9.70176 5.12576 10.0915L7.76576 12.7215C8.15703 13.1113 8.15823 13.7445 7.76845 14.1358C7.37866 14.527 6.7455 14.5282 6.35423 14.1384L3.71423 11.5084C3.32297 11.1187 3.32177 10.4855 3.71155 10.0942Z" fill="#201A17"/>
<path fill-rule="evenodd" clip-rule="evenodd" d="M69.95 45.79C69.95 45.2377 70.3977 44.79 70.95 44.79H101.43C101.982 44.79 102.43 45.2377 102.43 45.79C102.43 46.3423 101.982 46.79 101.43 46.79H70.95C70.3977 46.79 69.95 46.3423 69.95 45.79Z" fill="#201A17"/>
<path fill-rule="evenodd" clip-rule="evenodd" d="M74.2997 27.3073C74.8479 27.2408 75.3463 27.6314 75.4127 28.1797L77.5327 45.6697C77.5376 45.7096 77.54 45.7498 77.54 45.79V70.01C77.54 70.5623 77.0923 71.01 76.54 71.01C75.9877 71.01 75.54 70.5623 75.54 70.01V45.8504L73.4273 28.4203C73.3608 27.8721 73.7514 27.3737 74.2997 27.3073Z" fill="#201A17"/>
<path d="M32.29 26.88C32.29 34.46 26.15 40.6 18.58 40.6C11 40.6 4.86 34.46 4.86 26.88C4.86 19.31 11 13.16 18.58 13.16C26.15 13.16 32.29 19.31 32.29 26.88Z" fill="#EC5D4F"/>
<path fill-rule="evenodd" clip-rule="evenodd" d="M18.58 14.16C11.5528 14.16 5.86 19.8618 5.86 26.88C5.86 33.9077 11.5523 39.6 18.58 39.6C25.5972 39.6 31.29 33.9082 31.29 26.88C31.29 19.8613 25.5968 14.16 18.58 14.16ZM3.86 26.88C3.86 18.7582 10.4472 12.16 18.58 12.16C26.7032 12.16 33.29 18.7587 33.29 26.88C33.29 35.0118 26.7028 41.6 18.58 41.6C10.4477 41.6 3.86 35.0123 3.86 26.88Z" fill="#201A17"/>
<path fill-rule="evenodd" clip-rule="evenodd" d="M18.57 17.5C19.1223 17.5 19.57 17.9477 19.57 18.5V24.4698L22.1137 21.9321C22.5047 21.542 23.1379 21.5427 23.5279 21.9337C23.918 22.3247 23.9173 22.9579 23.5263 23.3479L19.2763 27.5879C18.9901 27.8734 18.5602 27.9586 18.1868 27.8037C17.8134 27.6487 17.57 27.2842 17.57 26.88V18.5C17.57 17.9477 18.0177 17.5 18.57 17.5Z" fill="#201A17"/>
<path fill-rule="evenodd" clip-rule="evenodd" d="M12.7 70.08C12.7 65.9057 16.0897 62.53 20.26 62.53C24.4323 62.53 27.81 65.9077 27.81 70.08C27.81 74.2503 24.4343 77.64 20.26 77.64C16.0877 77.64 12.7 74.2523 12.7 70.08ZM20.26 64.53C17.1903 64.53 14.7 67.0143 14.7 70.08C14.7 73.1477 17.1923 75.64 20.26 75.64C23.3257 75.64 25.81 73.1497 25.81 70.08C25.81 67.0123 23.3277 64.53 20.26 64.53Z" fill="#201A17"/>
<path fill-rule="evenodd" clip-rule="evenodd" d="M18.09 70.08C18.09 68.8766 19.0789 67.92 20.26 67.92C21.4523 67.92 22.42 68.8877 22.42 70.08C22.42 71.2611 21.4634 72.25 20.26 72.25C19.0677 72.25 18.09 71.2723 18.09 70.08ZM20.1379 69.9713C20.1045 70.0043 20.09 70.0424 20.09 70.08C20.09 70.1189 20.1057 70.1614 20.1421 70.1979C20.1786 70.2343 20.221 70.25 20.26 70.25C20.2976 70.25 20.3357 70.2355 20.3687 70.2021C20.4023 70.1681 20.42 70.1249 20.42 70.08C20.42 69.9923 20.3477 69.92 20.26 69.92C20.2151 69.92 20.1719 69.9377 20.1379 69.9713Z" fill="#201A17"/>
</svg>
