<svg viewBox="0 0 82 99" fill="none" xmlns="http://www.w3.org/2000/svg">
<path fill-rule="evenodd" clip-rule="evenodd" d="M73.92 1.98999C70.8323 1.98999 68.33 4.49227 68.33 7.57999V23.63H79.5V7.57999C79.5 4.49129 76.9967 1.98999 73.92 1.98999ZM66.33 7.57999C66.33 3.38771 69.7277 -0.0100098 73.92 -0.0100098C78.1033 -0.0100098 81.5 3.38869 81.5 7.57999V24.63C81.5 25.1823 81.0523 25.63 80.5 25.63H67.33C66.7777 25.63 66.33 25.1823 66.33 24.63V7.57999Z" fill="#201A17"/>
<path fill-rule="evenodd" clip-rule="evenodd" d="M9.54001 7.58C9.54001 3.38771 12.9277 0 17.12 0H73.92C74.4723 0 74.92 0.447715 74.92 1C74.92 1.55228 74.4723 2 73.92 2C70.8303 2 68.33 4.49426 68.33 7.58V79.68C68.33 80.2323 67.8823 80.68 67.33 80.68H35C34.4477 80.68 34 80.2323 34 79.68C34 79.1277 34.4477 78.68 35 78.68H66.33V7.58C66.33 5.36977 67.2741 3.38405 68.7804 2H17.12C14.0323 2 11.54 4.49228 11.54 7.58V60.48C11.54 61.0323 11.0923 61.48 10.54 61.48C9.98772 61.48 9.54001 61.0323 9.54001 60.48V7.58Z" fill="#201A17"/>
<path fill-rule="evenodd" clip-rule="evenodd" d="M8.64443 80.3785C9.11467 80.6682 9.26109 81.2842 8.97146 81.7544L2.89255 91.6241L6.8646 91.2836C7.30272 91.2461 7.71396 91.4991 7.8779 91.9072L9.36909 95.6184L15.9889 84.8851C16.2788 84.415 16.8949 84.2689 17.3649 84.5589C17.835 84.8488 17.9811 85.4649 17.6911 85.9349L10.0311 98.3549C9.83301 98.6762 9.47088 98.8585 9.09481 98.8264C8.71875 98.7942 8.39282 98.5531 8.2521 98.2028L6.29803 93.3395L1.0854 93.7863C0.709082 93.8186 0.346695 93.6361 0.148591 93.3145C-0.0495135 92.9929 -0.0495316 92.5872 0.148544 92.2656L7.26854 80.7056C7.55818 80.2353 8.17418 80.0889 8.64443 80.3785Z" fill="#201A17"/>
<path fill-rule="evenodd" clip-rule="evenodd" d="M29.1856 80.3785C29.6558 80.0889 30.2718 80.2353 30.5615 80.7056L37.6815 92.2656C37.8795 92.5871 37.8795 92.9929 37.6815 93.3144C37.4834 93.636 37.1211 93.8186 36.7448 93.7864L31.5232 93.3395L29.5785 98.2014C29.4382 98.5521 29.1123 98.7938 28.736 98.8263C28.3597 98.8588 27.9971 98.6764 27.7989 98.3549L20.1389 85.9349C19.849 85.4649 19.995 84.8488 20.4651 84.5589C20.9351 84.2689 21.5512 84.415 21.8411 84.8851L28.4589 95.6152L29.9415 91.9086C30.105 91.4998 30.5166 91.2461 30.9553 91.2836L34.9376 91.6244L28.8586 81.7544C28.5689 81.2842 28.7153 80.6682 29.1856 80.3785Z" fill="#201A17"/>
<path fill-rule="evenodd" clip-rule="evenodd" d="M19.99 14.34C19.99 13.7877 20.4377 13.34 20.99 13.34H55.01C55.5623 13.34 56.01 13.7877 56.01 14.34C56.01 14.8923 55.5623 15.34 55.01 15.34H20.99C20.4377 15.34 19.99 14.8923 19.99 14.34Z" fill="#201A17"/>
<path fill-rule="evenodd" clip-rule="evenodd" d="M19.99 26.94C19.99 26.3877 20.4377 25.94 20.99 25.94H55.01C55.5623 25.94 56.01 26.3877 56.01 26.94C56.01 27.4923 55.5623 27.94 55.01 27.94H20.99C20.4377 27.94 19.99 27.4923 19.99 26.94Z" fill="#201A17"/>
<path fill-rule="evenodd" clip-rule="evenodd" d="M19.99 39.54C19.99 38.9877 20.4377 38.54 20.99 38.54H55.01C55.5623 38.54 56.01 38.9877 56.01 39.54C56.01 40.0923 55.5623 40.54 55.01 40.54H20.99C20.4377 40.54 19.99 40.0923 19.99 39.54Z" fill="#201A17"/>
<path fill-rule="evenodd" clip-rule="evenodd" d="M19.99 52.14C19.99 51.5877 20.4377 51.14 20.99 51.14H55.01C55.5623 51.14 56.01 51.5877 56.01 52.14C56.01 52.6923 55.5623 53.14 55.01 53.14H20.99C20.4377 53.14 19.99 52.6923 19.99 52.14Z" fill="#201A17"/>
<path fill-rule="evenodd" clip-rule="evenodd" d="M35.83 64.74C35.83 64.1877 36.2777 63.74 36.83 63.74H55.01C55.5623 63.74 56.01 64.1877 56.01 64.74C56.01 65.2923 55.5623 65.74 55.01 65.74H36.83C36.2777 65.74 35.83 65.2923 35.83 64.74Z" fill="#201A17"/>
<path d="M18.91 56.54L23.8 59.75L29.52 60.93L30.7 66.66L33.91 71.54L30.7 76.42L29.52 82.14L23.8 83.32L18.91 86.53L14.03 83.32L8.31001 82.14L7.13001 76.42L3.92001 71.54L7.13001 66.66L8.31001 60.93L14.03 59.75L18.91 56.54Z" fill="#EC5D4F"/>
<path fill-rule="evenodd" clip-rule="evenodd" d="M18.3605 55.7045C18.6937 55.4853 19.1253 55.4851 19.4588 55.704L24.1891 58.8092L29.7221 59.9506C30.1132 60.0313 30.4189 60.3371 30.4995 60.7283L31.6408 66.2706L34.7455 70.9905C34.9649 71.324 34.9649 71.756 34.7455 72.0896L31.6407 76.8096L30.4994 82.342C30.4187 82.7331 30.1131 83.0387 29.7221 83.1194L24.1891 84.2608L19.4588 87.366C19.1253 87.5849 18.6937 87.5847 18.3605 87.3655L13.6404 84.2607L8.10797 83.1194C7.7169 83.0387 7.41131 82.7331 7.33064 82.342L6.18932 76.8096L3.08456 72.0896C2.86517 71.756 2.86517 71.324 3.08456 70.9905L6.18923 66.2706L7.33057 60.7283C7.41113 60.3371 7.71678 60.0313 8.10797 59.9506L13.6404 58.8093L18.3605 55.7045ZM18.9106 57.7366L14.5796 60.5855C14.4739 60.655 14.356 60.7038 14.2321 60.7294L9.1567 61.7764L8.10946 66.8617C8.08392 66.9857 8.03506 67.1038 7.96547 67.2096L5.11696 71.54L7.96547 75.8705C8.03499 75.9761 8.08383 76.0941 8.10939 76.218L9.15646 81.2936L14.2321 82.3406C14.356 82.3662 14.4739 82.415 14.5796 82.4845L18.9106 85.3334L23.2512 82.484C23.3567 82.4148 23.4744 82.3661 23.598 82.3406L28.6736 81.2936L29.7206 76.218C29.7462 76.0941 29.795 75.9761 29.8646 75.8705L32.7131 71.54L29.8646 67.2096C29.795 67.1038 29.7461 66.9857 29.7206 66.8617L28.6733 61.7764L23.598 60.7294C23.4744 60.7039 23.3567 60.6552 23.2512 60.586L18.9106 57.7366Z" fill="#201A17"/>
<path fill-rule="evenodd" clip-rule="evenodd" d="M18.91 64.16C14.8431 64.16 11.54 67.4615 11.54 71.54C11.54 75.6077 14.8423 78.91 18.91 78.91C22.9885 78.91 26.29 75.6069 26.29 71.54C26.29 67.4623 22.9877 64.16 18.91 64.16ZM9.54001 71.54C9.54001 66.3585 13.7369 62.16 18.91 62.16C24.0923 62.16 28.29 66.3577 28.29 71.54C28.29 76.7131 24.0915 80.91 18.91 80.91C13.7377 80.91 9.54001 76.7123 9.54001 71.54Z" fill="#201A17"/>
<path fill-rule="evenodd" clip-rule="evenodd" d="M22.5856 68.902C23.0209 69.242 23.098 69.8704 22.758 70.3056L18.758 75.4256C18.5828 75.65 18.3202 75.789 18.0362 75.8078C17.7521 75.8266 17.4735 75.7235 17.2702 75.5243L14.8002 73.1043C14.4057 72.7178 14.3992 72.0846 14.7857 71.6901C15.1722 71.2956 15.8053 71.2892 16.1998 71.6757L17.8707 73.3127L21.182 69.0743C21.522 68.6391 22.1504 68.562 22.5856 68.902Z" fill="#201A17"/>
</svg>
