<svg viewBox="0 0 116 88" fill="none" xmlns="http://www.w3.org/2000/svg">
<path fill-rule="evenodd" clip-rule="evenodd" d="M12.0537 36.8859C12.5916 36.7609 13.1291 37.0957 13.2541 37.6337C14.9798 45.061 17.0895 50.06 19.9765 54.2584C22.8739 58.4719 26.5905 61.9347 31.6406 66.2605L31.6408 66.2607C38.6925 72.3044 45.1385 74.3462 50.7522 76.1244C51.0449 76.2171 51.3354 76.3091 51.6236 76.4009C57.4481 78.2568 62.5059 80.0803 65.8178 86.4698C66.072 86.9601 65.8805 87.5637 65.3902 87.8178C64.8999 88.072 64.2963 87.8805 64.0422 87.3902C61.1341 81.7797 56.8119 80.1532 51.0164 78.3065C50.7211 78.2125 50.4225 78.1179 50.1205 78.0223C44.4857 76.2386 37.705 74.0921 30.3393 67.7793C25.2795 63.4452 21.3861 59.838 18.3285 55.3916C15.2605 50.93 13.0702 45.679 11.306 38.0863C11.181 37.5484 11.5157 37.0109 12.0537 36.8859Z" fill="#221F1F"/>
<path fill-rule="evenodd" clip-rule="evenodd" d="M11.2089 19.8406L10.44 20.48L9.5284 20.0689C9.67011 19.7547 9.96373 19.5355 10.3053 19.4891C10.647 19.4427 10.9884 19.5755 11.2089 19.8406ZM10.6971 22.5373C10.6242 22.737 10.548 22.9514 10.4698 23.1789C9.98719 24.5841 9.44147 26.4604 9.16486 28.3871C8.88563 30.3321 8.89659 32.2239 9.43231 33.7185C9.88623 34.9849 10.7214 35.994 12.2108 36.5359C14.4997 33.4369 14.0688 29.8176 12.8851 26.7319C12.2657 25.1172 11.4587 23.7074 10.8021 22.6974C10.7666 22.6428 10.7316 22.5895 10.6971 22.5373ZM14.7524 26.0156C16.1113 29.5582 16.7653 34.3145 13.3307 38.3391C13.0838 38.6284 12.6942 38.7526 12.3254 38.6596C9.75883 38.0122 8.26952 36.4019 7.54959 34.3933C6.85343 32.4511 6.8869 30.1804 7.18516 28.1029C7.48606 26.007 8.07283 24.0009 8.57831 22.5292C8.83199 21.7906 9.06742 21.1803 9.24019 20.7529C9.32663 20.539 9.39753 20.3706 9.44737 20.2544C9.47229 20.1963 9.49197 20.1512 9.5057 20.1201L9.52176 20.0838L9.52629 20.0736L9.5284 20.0689C9.52856 20.0686 9.5284 20.0689 10.44 20.48C11.2089 19.8406 11.2086 19.8402 11.2089 19.8406L11.2101 19.8421L11.2122 19.8446L11.2185 19.8522L11.2399 19.8784C11.2579 19.9006 11.2834 19.9323 11.3157 19.973C11.3802 20.0545 11.4719 20.1724 11.5851 20.3236C11.8113 20.6258 12.1244 21.062 12.4789 21.6073C13.1857 22.6945 14.0681 24.2316 14.7524 26.0156Z" fill="#221F1F"/>
<path fill-rule="evenodd" clip-rule="evenodd" d="M0.999987 47.34C0.276464 48.0303 0.276692 48.0306 0.276963 48.0308L0.280002 48.034L0.287628 48.042L0.314944 48.0702C0.33845 48.0944 0.372466 48.1292 0.416456 48.1736C0.504422 48.2625 0.632364 48.39 0.795982 48.5485C1.12302 48.8652 1.59371 49.3066 2.17356 49.8108C3.32844 50.8149 4.93808 52.0868 6.72331 53.1153C8.49002 54.133 10.5321 54.9732 12.5284 54.9845C14.6101 54.9963 16.5542 54.1019 17.9658 51.8634C18.1516 51.5689 18.1707 51.199 18.0164 50.8869C15.5876 45.9735 11.0772 44.9067 7.3904 45.0205C5.54705 45.0774 3.86117 45.4254 2.643 45.755C2.03166 45.9205 1.53246 46.0828 1.18328 46.2049C1.00856 46.266 0.871026 46.3172 0.775396 46.3538C0.727571 46.3721 0.690191 46.3868 0.663845 46.3973L0.632662 46.4099L0.623407 46.4136L0.620386 46.4149L0.619281 46.4153C0.618841 46.4155 0.618447 46.4157 0.999987 47.34ZM2.88245 47.7643C3.06558 47.9313 3.26741 48.1116 3.48579 48.3014C4.58778 49.2595 6.0894 50.4419 7.72166 51.3823C9.37246 52.3333 11.0541 52.9762 12.5397 52.9846C13.7986 52.9917 14.9733 52.5483 15.9523 51.2618C13.964 47.7652 10.5854 46.9229 7.45208 47.0195C5.81168 47.0702 4.28693 47.3821 3.16541 47.6856C3.0678 47.712 2.97341 47.7383 2.88245 47.7643ZM0.999987 47.34L0.619281 46.4153C0.314205 46.5412 0.0900753 46.8099 0.0216894 47.1328C-0.0466963 47.4557 0.0491342 47.792 0.276963 48.0308L0.999987 47.34Z" fill="#221F1F"/>
<path fill-rule="evenodd" clip-rule="evenodd" d="M11.87 66L11.3782 66.8707C11.088 66.7068 10.8986 66.4092 10.873 66.077C10.8473 65.7448 10.9888 65.4216 11.2504 65.2151L11.87 66ZM13.8275 65.8806C14.0645 65.9946 14.3254 66.117 14.6067 66.2445C15.9853 66.8692 17.8265 67.6029 19.7202 68.069C21.6364 68.5406 23.4883 68.7079 24.9461 68.3164C26.1728 67.987 27.1599 67.2579 27.7022 65.7956C24.6073 62.9301 21.0076 63.038 17.9913 63.9693C16.411 64.4572 15.0282 65.1644 14.0359 65.7549C13.9642 65.7975 13.8948 65.8394 13.8275 65.8806ZM17.4012 62.0583C20.9599 60.9595 25.6533 60.7881 29.5578 64.8138C29.8023 65.0659 29.8967 65.4277 29.8064 65.7671C29.128 68.3178 27.4952 69.7027 25.4648 70.248C23.5223 70.7696 21.2773 70.5119 19.2423 70.011C17.1848 69.5046 15.2204 68.7183 13.7812 68.0662C13.0587 67.7388 12.4623 67.4423 12.0449 67.2268C11.836 67.119 11.6717 67.0313 11.5584 66.9699C11.5018 66.9392 11.4579 66.9151 11.4276 66.8983L11.3924 66.8787L11.3826 66.8732L11.3782 66.8707C11.3778 66.8705 11.3782 66.8707 11.87 66C11.2504 65.2151 11.25 65.2154 11.2504 65.2151L11.252 65.2138L11.2546 65.2118L11.2626 65.2056L11.2891 65.185C11.3116 65.1678 11.3434 65.1435 11.3843 65.113C11.4659 65.052 11.5837 64.9659 11.7345 64.8602C12.0359 64.649 12.4705 64.359 13.0132 64.0361C14.0949 63.3925 15.6253 62.6066 17.4012 62.0583Z" fill="#221F1F"/>
<path fill-rule="evenodd" clip-rule="evenodd" d="M25.7004 38.0215L24.71 38.16L24.349 37.2274C24.6338 37.1172 24.9533 37.1431 25.2166 37.2978C25.4799 37.4526 25.6581 37.7191 25.7004 38.0215ZM23.8257 39.6492C23.6198 39.7491 23.3947 39.862 23.1552 39.9873C22.019 40.5819 20.5899 41.4419 19.3522 42.5212C18.1035 43.6101 17.1344 44.8487 16.7738 46.1833C16.4591 47.3486 16.5755 48.7063 17.6088 50.2854C19.3991 50.0767 20.6354 49.3465 21.5166 48.3824C22.508 47.2976 23.1076 45.851 23.4495 44.3339C23.7899 42.823 23.8594 41.3098 23.8405 40.1626C23.8375 39.9811 23.8323 39.8094 23.8257 39.6492ZM24.71 38.16C24.349 37.2274 24.3486 37.2276 24.3482 37.2277L24.3472 37.2282L24.3441 37.2293L24.3343 37.2332L24.3005 37.2466C24.2717 37.2581 24.2306 37.2747 24.1782 37.2963C24.0734 37.3396 23.9233 37.403 23.7361 37.4859C23.3618 37.6517 22.8373 37.8964 22.2279 38.2152C21.016 38.8494 19.4376 39.7931 18.0378 41.0138C16.649 42.2249 15.3507 43.7826 14.843 45.6617C14.319 47.6017 14.6791 49.7292 16.3183 51.9277C16.5185 52.1963 16.8399 52.3468 17.1744 52.3285C19.767 52.1873 21.6598 51.1902 22.9928 49.7317C24.302 48.2992 25.0149 46.4853 25.4006 44.7736C25.7876 43.0558 25.8607 41.3721 25.8402 40.1296C25.8299 39.5054 25.7959 38.9853 25.764 38.6186C25.7481 38.435 25.7327 38.2895 25.7211 38.188C25.7152 38.1373 25.7103 38.0976 25.7067 38.0696L25.7024 38.0365L25.7011 38.0267L25.7007 38.0235L25.7005 38.0224C25.7004 38.0219 25.7004 38.0215 24.71 38.16Z" fill="#221F1F"/>
<path fill-rule="evenodd" clip-rule="evenodd" d="M33.0382 50.4505L32.14 50.89L31.5455 50.0859C31.7842 49.9094 32.089 49.8481 32.3773 49.9186C32.6656 49.989 32.9078 50.1839 33.0382 50.4505ZM31.7381 52.5125C31.5545 52.6732 31.3525 52.8551 31.1384 53.0559C30.2111 53.9253 29.0825 55.1241 28.2112 56.4795C27.3324 57.8465 26.7782 59.2752 26.8444 60.633C26.9029 61.8314 27.4521 63.1217 29.0136 64.3842C30.7193 63.7099 31.6976 62.6825 32.2525 61.5368C32.8755 60.2505 33.0099 58.7183 32.8691 57.1772C32.729 55.6433 32.3232 54.1775 31.9449 53.0835C31.874 52.8784 31.8043 52.6873 31.7381 52.5125ZM32.14 50.89C31.5455 50.0859 31.5459 50.0856 31.5455 50.0859L31.5439 50.087L31.5413 50.089L31.5328 50.0953L31.5037 50.1173C31.4789 50.136 31.4437 50.1628 31.3989 50.1975C31.3095 50.2669 31.1818 50.3676 31.0237 50.4969C30.7079 50.7553 30.2691 51.1293 29.7704 51.5969C28.7789 52.5265 27.5225 53.8522 26.5288 55.398C25.5426 56.9322 24.7518 58.7817 24.8468 60.7304C24.9447 62.7384 25.9727 64.6669 28.2532 66.3197C28.5133 66.5083 28.8482 66.5603 29.1534 66.4596C31.6434 65.6379 33.1957 64.1776 34.0525 62.4085C34.892 60.6752 35.0201 58.7379 34.8608 56.9953C34.701 55.2454 34.2443 53.6131 33.8351 52.4299C33.6294 51.8352 33.4332 51.3465 33.2872 51.0042C33.2142 50.8329 33.1536 50.6978 33.1104 50.6039C33.0889 50.557 33.0716 50.5203 33.0594 50.4945L33.0449 50.4641L33.0405 50.4552L33.0382 50.4505C33.038 50.4501 33.0382 50.4505 32.14 50.89Z" fill="#221F1F"/>
<path fill-rule="evenodd" clip-rule="evenodd" d="M29.9186 80.1902C30.1774 80.2379 30.4613 80.2874 30.7662 80.3364C32.2615 80.5768 34.2321 80.8007 36.1829 80.7528C38.1569 80.7043 39.9885 80.3792 41.2925 79.6187C42.3895 78.9788 43.1497 78.0168 43.2876 76.4647C39.549 74.5129 36.1028 75.5624 33.4354 77.2533C32.0381 78.1391 30.889 79.1847 30.086 80.015C30.0284 80.0746 29.9726 80.1331 29.9186 80.1902ZM28.06 80.82L27.8145 81.7894C27.4914 81.7076 27.2303 81.4701 27.1182 81.1561C27.0061 80.8422 27.0579 80.493 27.2562 80.2251L28.06 80.82ZM32.3646 75.5642C35.5108 73.5696 39.9954 72.1714 44.8197 75.0296C45.1216 75.2085 45.3077 75.5325 45.31 75.8834C45.3275 78.5221 44.1162 80.2871 42.3001 81.3463C40.5627 82.3596 38.3281 82.7007 36.2321 82.7522C34.1129 82.8043 32.0097 82.562 30.4488 82.3111C29.6653 82.1851 29.0115 82.0559 28.5518 81.9577C28.3219 81.9086 28.1401 81.8671 28.0146 81.8377C27.9519 81.823 27.9032 81.8112 27.8695 81.803L27.8304 81.7934L27.8195 81.7906L27.8163 81.7898L27.8152 81.7896C27.8148 81.7895 27.8145 81.7894 28.06 80.82C27.2562 80.2251 27.2565 80.2247 27.2568 80.2243L27.2575 80.2234L27.2595 80.2207L27.2655 80.2126L27.2857 80.1858C27.3029 80.1633 27.3272 80.1316 27.3587 80.0914C27.4215 80.0111 27.5126 79.8971 27.6304 79.7555C27.8659 79.4726 28.2092 79.0787 28.6483 78.6247C29.5235 77.7197 30.7944 76.5596 32.3646 75.5642Z" fill="#221F1F"/>
<path fill-rule="evenodd" clip-rule="evenodd" d="M44.4015 60.2502L43.65 60.91L42.8651 60.2904C43.0491 60.0573 43.3271 59.9181 43.6239 59.9103C43.9207 59.9026 44.2056 60.0271 44.4015 60.2502ZM43.6883 62.5816C43.5532 62.7851 43.406 63.0139 43.252 63.2642C42.5854 64.3475 41.811 65.8017 41.3262 67.3394C40.8374 68.8903 40.6781 70.4152 41.0993 71.7083C41.471 72.8497 42.3409 73.9507 44.1813 74.7583C45.6491 73.6597 46.3226 72.4111 46.5567 71.1592C46.8196 69.7536 46.5465 68.239 46.0055 66.7881C45.4671 65.344 44.6904 64.0353 44.0379 63.0786C43.9155 62.8991 43.7982 62.733 43.6883 62.5816ZM48.5227 71.5268C48.1613 73.4593 47.048 75.2767 44.862 76.7238C44.5942 76.9011 44.2575 76.939 43.957 76.8256C41.3203 75.8307 39.8204 74.24 39.1976 72.3277C38.5932 70.4717 38.8702 68.4785 39.4188 66.7381C39.9716 64.9845 40.8359 63.3743 41.5487 62.2161C41.9072 61.6334 42.2325 61.157 42.4694 60.8245C42.588 60.658 42.6848 60.5272 42.7529 60.4367C42.787 60.3915 42.814 60.3563 42.833 60.3317L42.8553 60.3029L42.8618 60.2945L42.8639 60.2919L42.8646 60.291C42.8649 60.2907 42.8651 60.2904 43.65 60.91C44.4015 60.2502 44.4018 60.2505 44.4021 60.2509L44.4028 60.2518L44.4049 60.2542L44.4114 60.2617L44.4335 60.2872C44.452 60.3089 44.4783 60.3397 44.5114 60.3794C44.5777 60.4587 44.6717 60.5732 44.7872 60.7194C45.0179 61.0115 45.3356 61.4317 45.6903 61.9518C46.3959 62.9866 47.2654 64.4423 47.8795 66.0894C48.4911 67.7297 48.8767 69.6333 48.5227 71.5268Z" fill="#221F1F"/>
<path fill-rule="evenodd" clip-rule="evenodd" d="M103.776 36.8858C104.314 37.0105 104.649 37.5477 104.524 38.0857C102.765 45.6785 100.577 50.9296 97.5103 55.3914C94.454 59.838 90.5604 63.4453 85.5005 67.7795L85.5005 67.7795C78.1306 74.0917 71.3479 76.2383 65.7121 78.0219C65.4097 78.1177 65.1105 78.2123 64.8148 78.3066C59.0181 80.1532 54.6959 81.7797 51.7878 87.3902C51.5337 87.8805 50.9301 88.072 50.4398 87.8178C49.9495 87.5637 49.758 86.9601 50.0122 86.4698C53.3241 80.0803 58.3819 78.2568 64.2077 76.4009C64.4964 76.309 64.7874 76.2168 65.0807 76.1239C70.6953 74.3459 77.1435 72.3038 84.1995 66.2605C89.2496 61.9347 92.966 58.472 95.8621 54.2585C98.7478 50.0603 100.855 45.0615 102.576 37.6343C102.7 37.0962 103.238 36.7611 103.776 36.8858Z" fill="#221F1F"/>
<path fill-rule="evenodd" clip-rule="evenodd" d="M106.301 20.0684L105.39 20.48L104.621 19.841C104.841 19.5758 105.182 19.4428 105.524 19.489C105.866 19.5353 106.159 19.7542 106.301 20.0684ZM105.134 22.5376C105.1 22.5895 105.065 22.6426 105.03 22.6969C104.374 23.7068 103.568 25.1166 102.95 26.7313C101.769 29.8169 101.34 33.4366 103.629 36.5359C105.118 35.9941 105.953 34.9852 106.406 33.719C106.941 32.2245 106.951 30.3327 106.67 28.3877C106.392 26.461 105.845 24.5847 105.362 23.1795C105.284 22.9519 105.207 22.7373 105.134 22.5376ZM105.39 20.48C104.621 19.841 104.621 19.8407 104.621 19.841L104.619 19.8426L104.617 19.845L104.611 19.8527L104.59 19.8789C104.572 19.9011 104.546 19.9327 104.514 19.9735C104.45 20.055 104.358 20.1729 104.245 20.3241C104.019 20.6263 103.706 21.0625 103.352 21.6078C102.646 22.6951 101.765 24.2322 101.082 26.0162C99.726 29.5589 99.075 34.3148 102.509 38.3391C102.756 38.6284 103.146 38.7526 103.515 38.6596C106.081 38.0122 107.57 36.4017 108.289 34.3929C108.984 32.4505 108.949 30.1798 108.65 28.1023C108.348 26.0065 107.76 24.0003 107.253 22.5287C106.999 21.7901 106.763 21.1798 106.59 20.7523C106.503 20.5385 106.432 20.3701 106.383 20.2539C106.358 20.1958 106.338 20.1507 106.324 20.1195L106.308 20.0833L106.304 20.0731L106.301 20.0684C106.301 20.0681 106.301 20.0684 105.39 20.48Z" fill="#221F1F"/>
<path fill-rule="evenodd" clip-rule="evenodd" d="M115.221 46.4153C115.221 46.4155 115.222 46.4157 114.84 47.34C115.563 48.0306 115.563 48.0309 115.563 48.0312L115.562 48.0319L115.56 48.0343L115.552 48.0423L115.525 48.0705C115.501 48.0947 115.467 48.1295 115.423 48.1739C115.335 48.2628 115.207 48.3903 115.043 48.5488C114.716 48.8655 114.245 49.3069 113.665 49.811C112.509 50.815 110.899 52.087 109.113 53.1153C107.346 54.133 105.303 54.9732 103.307 54.9845C101.226 54.9963 99.2828 54.1017 97.8737 51.8627C97.6884 51.5682 97.6694 51.1987 97.8236 50.8869C100.252 45.9735 104.763 44.9067 108.45 45.0205C110.293 45.0774 111.979 45.4254 113.197 45.755C113.808 45.9205 114.308 46.0828 114.657 46.2049C114.831 46.266 114.969 46.3172 115.065 46.3538C115.112 46.3721 115.15 46.3868 115.176 46.3973L115.207 46.4099L115.217 46.4136L115.221 46.4153ZM114.84 47.34L115.563 48.0312C115.791 47.7924 115.887 47.456 115.818 47.133C115.75 46.8101 115.526 46.5413 115.221 46.4153L114.84 47.34ZM112.957 47.7641C112.866 47.7382 112.772 47.712 112.675 47.6856C111.553 47.3821 110.028 47.0702 108.388 47.0195C105.254 46.9228 101.876 47.7652 99.8874 51.2623C100.864 52.5484 102.038 52.9917 103.296 52.9846C104.781 52.9762 106.463 52.3332 108.115 51.3822C109.748 50.4418 111.25 49.2594 112.353 48.3012C112.572 48.1114 112.774 47.9311 112.957 47.7641Z" fill="#221F1F"/>
<path fill-rule="evenodd" clip-rule="evenodd" d="M104.589 65.2142C104.589 65.2145 104.589 65.2148 103.97 66C104.462 66.8708 104.461 66.871 104.461 66.8712L104.457 66.8733L104.447 66.8788L104.412 66.8984C104.382 66.9152 104.338 66.9393 104.281 66.97C104.168 67.0314 104.003 67.1191 103.794 67.2269C103.377 67.4424 102.78 67.7389 102.057 68.0663C100.617 68.7184 98.652 69.5047 96.5939 70.0111C94.5583 70.5119 92.313 70.7696 90.3709 70.248C88.3406 69.7026 86.709 68.3172 86.0333 65.766C85.9436 65.4272 86.0378 65.0661 86.2817 64.8143C90.1815 60.7878 94.8754 60.9597 98.4349 62.0582C100.211 62.6065 101.743 63.3924 102.825 64.0359C103.368 64.3588 103.803 64.6488 104.105 64.8599C104.256 64.9656 104.374 65.0518 104.455 65.1127C104.496 65.1433 104.528 65.1675 104.55 65.1847L104.577 65.2053L104.585 65.2115L104.588 65.2135L104.589 65.2142ZM103.97 66L104.461 66.8712C104.751 66.7073 104.941 66.4092 104.967 66.0769C104.993 65.7445 104.85 65.4207 104.589 65.2142L103.97 66ZM102.011 65.8806C101.944 65.8395 101.875 65.7976 101.803 65.755C100.81 65.1645 99.4261 64.4572 97.8451 63.9693C94.8269 63.0378 91.2275 62.9303 88.1371 65.7957C88.6775 67.2581 89.6635 67.987 90.8897 68.3164C92.347 68.7079 94.1992 68.5406 96.1161 68.069C98.0105 67.6029 99.8527 66.8691 101.232 66.2444C101.513 66.117 101.774 65.9947 102.011 65.8806Z" fill="#221F1F"/>
<path fill-rule="evenodd" clip-rule="evenodd" d="M91.491 37.2274L91.13 38.16L90.1396 38.0215C90.1819 37.7191 90.3601 37.4526 90.6234 37.2978C90.8867 37.1431 91.2062 37.1172 91.491 37.2274ZM92.0143 39.6492C92.0077 39.8094 92.0025 39.9811 91.9995 40.1626C91.9806 41.3098 92.0501 42.823 92.3905 44.3339C92.7324 45.851 93.332 47.2976 94.3235 48.3824C95.2046 49.3465 96.4409 50.0767 98.2312 50.2854C99.2645 48.7063 99.3809 47.3486 99.0662 46.1833C98.7056 44.8487 97.7365 43.6101 96.4878 42.5212C95.2501 41.4419 93.821 40.5819 92.6848 39.9873C92.4453 39.862 92.2202 39.7491 92.0143 39.6492ZM100.997 45.6617C101.521 47.6017 101.161 49.7292 99.5217 51.9277C99.3215 52.1963 99.0001 52.3468 98.6656 52.3285C96.073 52.1873 94.1802 51.1902 92.8472 49.7317C91.538 48.2992 90.8251 46.4853 90.4395 44.7736C90.0524 43.0558 89.9793 41.3721 89.9998 40.1296C90.0101 39.5054 90.0442 38.9853 90.076 38.6186C90.0919 38.435 90.1073 38.2895 90.119 38.1881C90.1248 38.1373 90.1297 38.0976 90.1333 38.0696L90.1376 38.0365L90.1389 38.0267L90.1394 38.0235L90.1396 38.0215C90.1397 38.0211 90.1396 38.0215 91.13 38.16C91.491 37.2274 91.4906 37.2273 91.491 37.2274L91.4959 37.2293L91.5057 37.2332L91.5395 37.2466C91.5683 37.2581 91.6094 37.2747 91.6618 37.2963C91.7666 37.3396 91.9167 37.403 92.104 37.4859C92.4782 37.6517 93.0027 37.8964 93.6121 38.2152C94.824 38.8494 96.4024 39.7931 97.8022 41.0138C99.191 42.2249 100.489 43.7826 100.997 45.6617Z" fill="#221F1F"/>
<path fill-rule="evenodd" clip-rule="evenodd" d="M84.2841 50.0856L83.69 50.89L82.7914 50.4511C82.9217 50.1844 83.1638 49.9893 83.4521 49.9187C83.7405 49.8481 84.0453 49.9092 84.2841 50.0856ZM84.0929 52.5125C84.0269 52.6872 83.9576 52.878 83.8869 53.0828C83.5095 54.1767 83.1049 55.6426 82.9659 57.1765C82.8263 58.7176 82.9618 60.2498 83.5857 61.5363C84.1415 62.6823 85.1205 63.7099 86.8264 64.3842C88.3877 63.1218 88.9362 61.8317 88.994 60.6336C89.0594 59.2759 88.5042 57.8472 87.6241 56.48C86.7516 55.1245 85.6217 53.9257 84.6935 53.0562C84.479 52.8553 84.2768 52.6733 84.0929 52.5125ZM90.9916 60.7299C90.8948 62.7381 89.8674 64.6668 87.5868 66.3197C87.3267 66.5083 86.9917 66.5603 86.6866 66.4596C84.1967 65.6379 82.6439 64.1778 81.7861 62.409C80.9456 60.6758 80.8162 58.7387 80.9741 56.996C81.1326 55.2462 81.588 53.6139 81.9962 52.4306C82.2014 51.8359 82.3972 51.3472 82.5429 51.0049C82.6158 50.8335 82.6763 50.6984 82.7194 50.6046C82.7409 50.5576 82.7581 50.521 82.7703 50.4952L82.7848 50.4648L82.7892 50.4558L82.7906 50.4529L82.7914 50.4511C82.7916 50.4507 82.7914 50.4511 83.69 50.89C84.2841 50.0856 84.2838 50.0854 84.2841 50.0856L84.2884 50.0888L84.2968 50.0951L84.326 50.117C84.3508 50.1357 84.386 50.1626 84.4308 50.1973C84.5204 50.2666 84.6482 50.3673 84.8063 50.4966C85.1224 50.755 85.5616 51.1289 86.0608 51.5966C87.0532 52.5262 88.3109 53.8517 89.3058 55.3975C90.2933 56.9316 91.0856 58.781 90.9916 60.7299Z" fill="#221F1F"/>
<path fill-rule="evenodd" clip-rule="evenodd" d="M88.5736 80.2248C88.5739 80.2252 88.5742 80.2256 87.77 80.82C88.0156 81.7894 88.0153 81.7894 88.0149 81.7895L88.0139 81.7898L88.0107 81.7906L87.9998 81.7933L87.9607 81.803C87.927 81.8112 87.8783 81.8229 87.8156 81.8377C87.6902 81.8671 87.5086 81.9085 87.2787 81.9577C86.8193 82.0559 86.1659 82.1851 85.3829 82.311C83.8229 82.5619 81.7209 82.8043 79.6029 82.7522C77.508 82.7007 75.2746 82.3595 73.5382 81.3462C71.723 80.2868 70.5126 78.5218 70.53 75.8834C70.5324 75.5325 70.7184 75.2085 71.0203 75.0296C75.8446 72.1714 80.3268 73.5696 83.4708 75.5644C85.0398 76.5599 86.3094 77.72 87.1836 78.6251C87.6223 79.0792 87.9652 79.473 88.2004 79.756C88.3181 79.8975 88.4091 80.0116 88.4719 80.0919C88.5032 80.1321 88.5276 80.1638 88.5447 80.1863L88.5649 80.2132L88.5709 80.2212L88.5736 80.2248ZM87.77 80.82L88.0149 81.7895C88.3379 81.7077 88.5997 81.4702 88.7117 81.1564C88.8238 80.8426 88.7717 80.4928 88.5736 80.2248L87.77 80.82ZM85.9127 80.1902C85.8587 80.1329 85.8029 80.0744 85.7451 80.0146C84.9431 79.1843 83.7953 78.1389 82.3993 77.2531C79.7346 75.5624 76.2908 74.5128 72.5524 76.4647C72.6902 78.0171 73.45 78.9791 74.5462 79.6188C75.8492 80.3792 77.6795 80.7043 79.6521 80.7528C81.6016 80.8007 83.5709 80.5768 85.0653 80.3364C85.3701 80.2874 85.654 80.2379 85.9127 80.1902Z" fill="#221F1F"/>
<path fill-rule="evenodd" clip-rule="evenodd" d="M72.9649 60.2904L72.18 60.91L71.4281 60.2507C71.624 60.0274 71.9089 59.9027 72.2058 59.9103C72.5027 59.918 72.7809 60.0573 72.9649 60.2904ZM72.1422 62.5823C72.0328 62.7333 71.9159 62.8991 71.794 63.078C71.1425 64.0348 70.367 65.3434 69.8297 66.7874C69.29 68.2383 69.018 69.7529 69.2816 71.1586C69.5164 72.4108 70.1907 73.6595 71.6584 74.7582C73.4959 73.9508 74.364 72.8502 74.7347 71.7091C75.1547 70.4158 74.9946 68.8908 74.5051 67.3397C74.0198 65.8019 73.245 64.3477 72.5782 63.2643C72.4243 63.0143 72.2772 62.7857 72.1422 62.5823ZM72.18 60.91C71.4281 60.2507 71.4279 60.251 71.4276 60.2513L71.4268 60.2522L71.4247 60.2546L71.4182 60.2621L71.3962 60.2876C71.3776 60.3093 71.3514 60.3402 71.3183 60.3798C71.2521 60.4591 71.1582 60.5736 71.0429 60.7198C70.8125 61.012 70.4951 61.4322 70.141 61.9523C69.4362 62.9871 68.568 64.4429 67.9553 66.0901C67.345 67.7305 66.9608 69.634 67.3159 71.5273C67.6783 73.4596 68.7921 75.2768 70.978 76.7238C71.2459 76.9012 71.5828 76.939 71.8834 76.8255C74.5178 75.8304 76.0157 74.2393 76.6369 72.3269C77.2396 70.4711 76.9616 68.478 76.4124 66.7378C75.859 64.9843 74.9944 63.3742 74.2815 62.216C73.9228 61.6334 73.5976 61.1569 73.3606 60.8244C73.242 60.658 73.1452 60.5272 73.0771 60.4367C73.043 60.3915 73.016 60.3563 72.9971 60.3317L72.9747 60.3029L72.9682 60.2945L72.9661 60.2919L72.9654 60.291C72.9651 60.2907 72.9649 60.2904 72.18 60.91Z" fill="#221F1F"/>
<path d="M86.71 29.57C86.71 45.35 73.92 58.15 58.13 58.15C42.35 58.15 29.56 45.35 29.56 29.57C29.56 13.79 42.35 0.98999 58.13 0.98999C73.92 0.98999 86.71 13.79 86.71 29.57Z" fill="#EC675C"/>
<path fill-rule="evenodd" clip-rule="evenodd" d="M58.13 1.98999C42.9027 1.98999 30.56 14.3418 30.56 29.57C30.56 44.7982 42.9027 57.15 58.13 57.15C73.3675 57.15 85.71 44.7979 85.71 29.57C85.71 14.342 73.3675 1.98999 58.13 1.98999ZM28.56 29.57C28.56 13.2382 41.7973 -0.0100098 58.13 -0.0100098C74.4725 -0.0100098 87.71 13.2379 87.71 29.57C87.71 45.902 74.4725 59.15 58.13 59.15C41.7973 59.15 28.56 45.9018 28.56 29.57Z" fill="#221F1F"/>
<path fill-rule="evenodd" clip-rule="evenodd" d="M52.11 14.59C52.6623 14.59 53.11 15.0377 53.11 15.59V43.81C53.11 44.3623 52.6623 44.81 52.11 44.81H47.51C46.9577 44.81 46.51 44.3623 46.51 43.81V21.04C46.51 20.4877 46.9577 20.04 47.51 20.04C48.0623 20.04 48.51 20.4877 48.51 21.04V42.81H51.11V15.59C51.11 15.0377 51.5577 14.59 52.11 14.59Z" fill="#221F1F"/>
<path fill-rule="evenodd" clip-rule="evenodd" d="M52.7937 14.8602C53.1967 15.2378 53.2174 15.8706 52.8398 16.2737L43.0598 26.7137C42.6822 27.1167 42.0494 27.1374 41.6463 26.7598C41.2433 26.3822 41.2226 25.7494 41.6002 25.3463L51.3802 14.9063C51.7578 14.5033 52.3906 14.4826 52.7937 14.8602Z" fill="#221F1F"/>
<path fill-rule="evenodd" clip-rule="evenodd" d="M69.5837 14.8602C69.9867 15.2378 70.0074 15.8706 69.6298 16.2737L59.8498 26.7137C59.4722 27.1167 58.8394 27.1374 58.4363 26.7598C58.0333 26.3822 58.0126 25.7494 58.3902 25.3463L68.1702 14.9063C68.5478 14.5033 69.1806 14.4826 69.5837 14.8602Z" fill="#221F1F"/>
<path fill-rule="evenodd" clip-rule="evenodd" d="M68.92 14.59C69.4723 14.59 69.92 15.0377 69.92 15.59V43.81C69.92 44.3623 69.4723 44.81 68.92 44.81H64.31C63.7577 44.81 63.31 44.3623 63.31 43.81V21.04C63.31 20.4877 63.7577 20.04 64.31 20.04C64.8623 20.04 65.31 20.4877 65.31 21.04V42.81H67.92V15.59C67.92 15.0377 68.3677 14.59 68.92 14.59Z" fill="#221F1F"/>
</svg>
