<svg viewBox="0 0 79 96" fill="none" xmlns="http://www.w3.org/2000/svg">
<path fill-rule="evenodd" clip-rule="evenodd" d="M26.48 48.34C26.7452 48.34 26.9996 48.4454 27.1871 48.6329L34.3771 55.8229C34.7676 56.2134 34.7676 56.8466 34.3771 57.2371L23.4289 68.1853C23.4286 68.1857 23.4282 68.186 23.4279 68.1863C21.0559 70.5692 17.2021 70.5663 14.8229 68.1871C12.4514 65.8156 12.4539 61.9638 14.8211 59.5847L14.8229 59.5829L25.7729 48.6329C25.9604 48.4454 26.2148 48.34 26.48 48.34ZM26.48 50.7542L16.2389 60.9953C16.2386 60.9956 16.2383 60.9959 16.238 60.9962C14.6461 62.5971 14.6489 65.1847 16.2371 66.7729C17.8376 68.3734 20.423 68.3708 22.0111 66.7747L22.0129 66.7729L32.2558 56.53L26.48 50.7542Z" fill="#201A17"/>
<path fill-rule="evenodd" clip-rule="evenodd" d="M31.7388 43.08C32.0045 43.0797 32.2593 43.1851 32.4471 43.3729L39.6371 50.5629C40.027 50.9528 40.0277 51.5847 39.6387 51.9755L37.4887 54.1355C37.3014 54.3237 37.0468 54.4297 36.7812 54.43C36.5155 54.4303 36.2607 54.3249 36.0729 54.1371L28.8829 46.9471C28.493 46.5572 28.4923 45.9253 28.8813 45.5346L31.0313 43.3746C31.2186 43.1863 31.4732 43.0803 31.7388 43.08ZM31.7416 45.4959L31.0026 46.2384L36.7784 52.0142L37.5174 51.2717L31.7416 45.4959Z" fill="#201A17"/>
<path fill-rule="evenodd" clip-rule="evenodd" d="M31.0592 46.71C31.3247 46.7098 31.5794 46.8152 31.7671 47.0029L36.0071 51.2429C36.3972 51.633 36.3977 52.2653 36.0082 52.656L32.9082 55.766C32.7208 55.954 32.4663 56.0598 32.2008 56.06C31.9353 56.0602 31.6806 55.9548 31.4929 55.7671L27.2529 51.5271C26.8628 51.137 26.8623 50.5047 27.2518 50.114L30.3518 47.004C30.5392 46.816 30.7937 46.7102 31.0592 46.71ZM31.0611 49.1253L29.3731 50.8189L32.1989 53.6446L33.8869 51.9511L31.0611 49.1253Z" fill="#201A17"/>
<path fill-rule="evenodd" clip-rule="evenodd" d="M64.7671 18.2529C65.0251 18.5109 65.1221 18.889 65.0202 19.2394L64.1502 22.2294C64.1032 22.391 64.0161 22.5381 63.8971 22.6571L46.9971 39.5571C46.6066 39.9476 45.9734 39.9476 45.5829 39.5571C45.1924 39.1666 45.1924 38.5334 45.5829 38.1429L62.3015 21.4243L62.5911 20.4289L61.5957 20.7185L44.9071 37.4071C44.5166 37.7976 43.8834 37.7976 43.4929 37.4071C43.1024 37.0166 43.1024 36.3834 43.4929 35.9929L60.3629 19.1229C60.4819 19.0039 60.629 18.9168 60.7906 18.8698L63.7806 17.9998C64.131 17.8979 64.5091 17.9949 64.7671 18.2529Z" fill="#201A17"/>
<path d="M58.17 52.29C56.47 52.57 54.72 52.04 53.5 50.81L32.2 29.52C30.98 28.29 30.44 26.55 30.72 24.84C31.11 22.48 30.53 20.14 28.89 18.51C26.67 16.29 23.17 15.99 20.06 17.45L25.22 22.62L23.98 26.49L20.11 27.73L14.94 22.57C13.48 25.68 13.78 29.19 16 31.4C17.63 33.04 19.97 33.63 22.33 33.24C24.04 32.95 25.78 33.49 27.01 34.71L48.3 56.01C49.53 57.23 50.06 58.98 49.78 60.69C49.39 63.05 49.98 65.39 51.62 67.02C53.83 69.24 57.33 69.53 60.45 68.07L55.29 62.91L56.53 59.04L60.4 57.8L65.56 62.96C67.02 59.85 66.73 56.34 64.51 54.13C62.87 52.49 60.54 51.9 58.17 52.29Z" fill="#EC5D4F"/>
<path fill-rule="evenodd" clip-rule="evenodd" d="M19.635 16.5448C23.0283 14.9518 27.0084 15.2152 29.596 17.8018C31.5064 19.7013 32.1386 22.3868 31.7069 25.0016C31.4776 26.4016 31.9202 27.8169 32.9086 28.8144C32.909 28.8148 32.9095 28.8153 32.91 28.8158L54.21 50.1058C55.1919 51.0957 56.6124 51.5331 58.0075 51.3033C60.637 50.8706 63.3099 51.5162 65.2164 53.4222C67.8076 56.0025 68.0564 59.9954 66.4652 63.385C66.3268 63.6799 66.0533 63.8889 65.7324 63.945C65.4114 64.0012 65.0833 63.8975 64.8529 63.6671L60.1242 58.9384L57.3253 59.8353L56.4284 62.6342L61.1571 67.3629C61.3876 67.5934 61.4913 67.9219 61.4349 68.243C61.3785 68.5641 61.1691 68.8376 60.8738 68.9757C57.4758 70.5658 53.4938 70.3179 50.9132 67.7274C49.0055 65.83 48.3609 63.1463 48.7931 60.5284C49.0235 59.1217 48.585 57.7012 47.5958 56.72L47.5927 56.7169L26.3058 35.42C26.3053 35.4195 26.3048 35.419 26.3044 35.4186C25.3069 34.4301 23.8934 33.9891 22.4972 34.2259L22.493 34.2266C19.8747 34.6593 17.1904 34.0148 15.2926 32.1069C12.704 29.5281 12.4425 25.5367 14.0348 22.145C14.1732 21.8503 14.4464 21.6413 14.7671 21.5851C15.0879 21.5288 15.4159 21.6322 15.6464 21.8622L20.3851 26.5918L23.1847 25.6947L24.0818 22.8951L19.3522 18.1564C19.1222 17.9259 19.0188 17.5979 19.0751 17.2771C19.1313 16.9564 19.3403 16.6832 19.635 16.5448ZM21.8639 17.8418L25.9278 21.9136C26.1922 22.1785 26.2865 22.5688 26.1723 22.9251L24.9323 26.7951C24.8338 27.1027 24.5927 27.3438 24.2851 27.4423L20.4151 28.6823C20.0588 28.7965 19.6685 28.7022 19.4036 28.4378L15.3319 24.374C14.6664 26.769 15.1545 29.1472 16.7055 30.6913L16.7093 30.6951C18.071 32.0652 20.0649 32.6002 22.165 32.2537C24.1874 31.9114 26.2523 32.55 27.7142 34L27.7173 34.0031L49.0042 55.3C49.0046 55.3004 49.0049 55.3007 49.0053 55.3011C50.4753 56.7599 51.0964 58.8388 50.7669 60.8516L50.7666 60.853C50.4195 62.9538 50.9544 64.9486 52.3249 66.3107L52.3287 66.3145C53.8716 67.8644 56.243 68.3475 58.6441 67.6783L54.5829 63.6171C54.318 63.3522 54.2234 62.9616 54.3377 62.6049L55.5777 58.7349C55.6762 58.4273 55.9173 58.1862 56.2249 58.0877L60.0949 56.8477C60.4516 56.7334 60.8423 56.828 61.1071 57.0929L65.1691 61.1549C65.837 58.7587 65.3541 56.3814 63.8045 54.8387L63.8029 54.8371C62.4294 53.4636 60.4426 52.9295 58.3325 53.2767C56.3281 53.6069 54.2492 52.9846 52.7911 51.5153C52.7907 51.5149 52.7904 51.5146 52.79 51.5142L31.4931 30.2273L31.49 30.2242C30.0394 28.7617 29.4025 26.6978 29.7331 24.6784L29.7334 24.677C30.0811 22.5728 29.5535 20.5794 28.1851 19.2193L28.1829 19.2171C26.6297 17.6639 24.2562 17.1766 21.8639 17.8418Z" fill="#201A17"/>
<path fill-rule="evenodd" clip-rule="evenodd" d="M27.3629 29.8729C27.7534 29.4824 28.3866 29.4824 28.7771 29.8729L53.1371 54.2329C53.5276 54.6234 53.5276 55.2566 53.1371 55.6471C52.7466 56.0376 52.1134 56.0376 51.7229 55.6471L27.3629 31.2871C26.9724 30.8966 26.9724 30.2634 27.3629 29.8729Z" fill="#201A17"/>
<path fill-rule="evenodd" clip-rule="evenodd" d="M30.7474 52.1932C31.1378 52.5839 31.1375 53.2171 30.7468 53.6074L19.6868 64.6574C19.2961 65.0478 18.6629 65.0475 18.2726 64.6568C17.8822 64.2661 17.8825 63.6329 18.2732 63.2426L29.3332 52.1926C29.7239 51.8022 30.3571 51.8025 30.7474 52.1932Z" fill="#201A17"/>
<path fill-rule="evenodd" clip-rule="evenodd" d="M0.375855 12.4208C14.1135 1.73031 31.4406 -0.0100098 39.38 -0.0100098C47.3296 -0.0100098 64.6464 1.73038 78.3939 12.4206C78.6375 12.61 78.78 12.9014 78.78 13.21V46.7078C78.78 53.5601 78.7801 61.3372 73.8371 69.5614C68.8893 77.7936 59.0824 86.3354 39.791 95.0316C39.5296 95.1495 39.2303 95.1494 38.969 95.0316C19.6825 86.3354 9.87813 77.7935 4.93159 69.5613C-0.0100856 61.3372 -0.0100411 53.5601 -0.0100019 46.7079L-0.0100017 13.21C-0.0100017 12.9015 0.132388 12.6103 0.375855 12.4208ZM1.99 13.7021V46.65C1.99 53.5236 2.004 60.806 6.64591 68.5312C11.2634 76.2158 20.5525 84.4748 39.3801 93.0224C58.2126 84.4748 67.5042 76.2157 72.1229 68.5311C76.766 60.8059 76.78 53.5236 76.78 46.65V13.7023C63.6088 3.6764 47.075 1.98999 39.38 1.98999C31.6947 1.98999 15.1515 3.67647 1.99 13.7021Z" fill="#201A17"/>
</svg>
