<svg viewBox="0 0 70 88" xmlns="http://www.w3.org/2000/svg">
<path fill-rule="evenodd" clip-rule="evenodd" d="M0 0.98999C0 0.437705 0.447715 -0.0100098 1 -0.0100098H56.13C56.3952 -0.0100098 56.6496 0.0953471 56.8371 0.282884L69.4471 12.8929C69.6346 13.0804 69.74 13.3348 69.74 13.6V86.01C69.74 86.5623 69.2923 87.01 68.74 87.01H1C0.447715 87.01 0 86.5623 0 86.01V0.98999ZM2 1.98999V85.01H67.74V14.0142L55.7158 1.98999H2Z" fill="#201A17"/>
<path fill-rule="evenodd" clip-rule="evenodd" d="M7.56 33.18C7.56 32.6277 8.00771 32.18 8.56 32.18H16.91C17.4623 32.18 17.91 32.6277 17.91 33.18V41.54C17.91 42.0923 17.4623 42.54 16.91 42.54H8.56C8.00771 42.54 7.56 42.0923 7.56 41.54V33.18ZM9.56 34.18V40.54H15.91V34.18H9.56Z" fill="#201A17"/>
<path fill-rule="evenodd" clip-rule="evenodd" d="M7.56 61.18C7.56 60.6277 8.00771 60.18 8.56 60.18H16.91C17.4623 60.18 17.91 60.6277 17.91 61.18V69.54C17.91 70.0923 17.4623 70.54 16.91 70.54H8.56C8.00771 70.54 7.56 70.0923 7.56 69.54V61.18ZM9.56 62.18V68.54H15.91V62.18H9.56Z" fill="#201A17"/>
<path fill-rule="evenodd" clip-rule="evenodd" d="M27.98 37.36C27.98 36.8077 28.4277 36.36 28.98 36.36H56.81C57.3623 36.36 57.81 36.8077 57.81 37.36C57.81 37.9123 57.3623 38.36 56.81 38.36H28.98C28.4277 38.36 27.98 37.9123 27.98 37.36Z" fill="#201A17"/>
<path fill-rule="evenodd" clip-rule="evenodd" d="M27.98 47.58C27.98 47.0277 28.4277 46.58 28.98 46.58H56.81C57.3623 46.58 57.81 47.0277 57.81 47.58C57.81 48.1323 57.3623 48.58 56.81 48.58H28.98C28.4277 48.58 27.98 48.1323 27.98 47.58Z" fill="#201A17"/>
<path fill-rule="evenodd" clip-rule="evenodd" d="M27.98 65.36C27.98 64.8077 28.4277 64.36 28.98 64.36H56.81C57.3623 64.36 57.81 64.8077 57.81 65.36C57.81 65.9123 57.3623 66.36 56.81 66.36H28.98C28.4277 66.36 27.98 65.9123 27.98 65.36Z" fill="#201A17"/>
<path fill-rule="evenodd" clip-rule="evenodd" d="M27.98 75.58C27.98 75.0277 28.4277 74.58 28.98 74.58H56.81C57.3623 74.58 57.81 75.0277 57.81 75.58C57.81 76.1323 57.3623 76.58 56.81 76.58H28.98C28.4277 76.58 27.98 76.1323 27.98 75.58Z" fill="#201A17"/>
<path fill-rule="evenodd" clip-rule="evenodd" d="M23.8374 27.5632C24.2278 27.9539 24.2275 28.5871 23.8368 28.9774L13.4368 39.3674C13.0462 39.7576 12.4133 39.7575 12.0229 39.3671L6.19289 33.5371C5.80236 33.1466 5.80236 32.5134 6.19289 32.1229C6.58341 31.7324 7.21658 31.7324 7.6071 32.1229L12.7303 37.2461L22.4232 27.5625C22.8139 27.1722 23.4471 27.1725 23.8374 27.5632Z" fill="#201A17"/>
<path fill-rule="evenodd" clip-rule="evenodd" d="M23.8371 55.2729C24.2276 55.6634 24.2276 56.2966 23.8371 56.6871L13.4371 67.0871C13.2495 67.2748 12.9949 67.3801 12.7296 67.38C12.4642 67.3799 12.2098 67.2743 12.0223 67.0865L6.19228 61.2465C5.80209 60.8557 5.80263 60.2225 6.19349 59.8323C6.58435 59.4421 7.21752 59.4427 7.60771 59.8335L12.7306 64.9652L22.4229 55.2729C22.8134 54.8824 23.4466 54.8824 23.8371 55.2729Z" fill="#201A17"/>
<path fill-rule="evenodd" clip-rule="evenodd" d="M55.7471 0.076195C56.1207 -0.0786324 56.5508 0.00677791 56.8368 0.292612L69.4468 12.8926C69.733 13.1785 69.8187 13.6087 69.664 13.9825C69.5092 14.3563 69.1445 14.6 68.74 14.6H56.13C55.5777 14.6 55.13 14.1523 55.13 13.6V0.999999C55.13 0.595609 55.3736 0.231022 55.7471 0.076195ZM57.13 3.41286V12.6H66.3244L57.13 3.41286Z" fill="#201A17"/>
<path d="M11.81 8.38H45.81V12.85H11.81V8.38Z" fill="#EC5D4F"/>
<path fill-rule="evenodd" clip-rule="evenodd" d="M10.81 8.38C10.81 7.82772 11.2577 7.38 11.81 7.38H45.81C46.3623 7.38 46.81 7.82772 46.81 8.38V12.85C46.81 13.4023 46.3623 13.85 45.81 13.85H11.81C11.2577 13.85 10.81 13.4023 10.81 12.85V8.38ZM12.81 9.38V11.85H44.81V9.38H12.81Z" fill="#201A17"/>
<path d="M15.41 20.56H12.83L11.93 12.85H16.31L15.41 20.56Z" fill="#EC5D4F"/>
<path fill-rule="evenodd" clip-rule="evenodd" d="M11.183 12.1852C11.3728 11.972 11.6446 11.85 11.93 11.85H16.31C16.5954 11.85 16.8672 11.972 17.057 12.1852C17.2467 12.3983 17.3363 12.6825 17.3033 12.966L16.4033 20.6759C16.3444 21.18 15.9174 21.56 15.41 21.56H12.83C12.3226 21.56 11.8956 21.18 11.8367 20.6759L10.9367 12.966C10.9037 12.6825 10.9933 12.3983 11.183 12.1852ZM13.0535 13.85L13.7201 19.56H14.5199L15.1865 13.85H13.0535Z" fill="#201A17"/>
<path d="M44.78 20.56H42.21L41.31 12.85H45.68L44.78 20.56Z" fill="#EC5D4F"/>
<path fill-rule="evenodd" clip-rule="evenodd" d="M40.563 12.1852C40.7528 11.972 41.0246 11.85 41.31 11.85H45.68C45.9654 11.85 46.2372 11.972 46.427 12.1852C46.6167 12.3983 46.7063 12.6825 46.6733 12.966L45.7733 20.6759C45.7144 21.18 45.2874 21.56 44.78 21.56H42.21C41.7026 21.56 41.2756 21.18 41.2167 20.6759L40.3167 12.966C40.2837 12.6825 40.3733 12.3983 40.563 12.1852ZM42.4335 13.85L43.1001 19.56H43.8899L44.5565 13.85H42.4335Z" fill="#201A17"/>
<path d="M30.1 20.56H27.52L26.62 12.85H31L30.1 20.56Z" fill="#EC5D4F"/>
<path fill-rule="evenodd" clip-rule="evenodd" d="M25.873 12.1852C26.0628 11.972 26.3346 11.85 26.62 11.85H31C31.2854 11.85 31.5572 11.972 31.747 12.1852C31.9367 12.3983 32.0263 12.6825 31.9933 12.966L31.0933 20.6759C31.0344 21.18 30.6074 21.56 30.1 21.56H27.52C27.0126 21.56 26.5856 21.18 26.5267 20.6759L25.6267 12.966C25.5937 12.6825 25.6833 12.3983 25.873 12.1852ZM27.7435 13.85L28.4101 19.56H29.2099L29.8765 13.85H27.7435Z" fill="#201A17"/>
</svg>
