<svg viewBox="0 0 24 23" xmlns="http://www.w3.org/2000/svg">
<path d="M21.9371 20.333C21.9371 19.6257 21.6546 18.9477 21.152 18.4474C20.6491 17.9473 19.9672 17.6662 19.2562 17.666C18.545 17.6659 17.863 17.9464 17.3599 18.4463C16.8567 18.946 16.5739 19.6241 16.5735 20.3312C16.573 21.0385 16.8549 21.7169 17.3574 22.2174C17.8599 22.7178 18.5416 22.9992 19.2528 23C19.964 22.9992 20.646 22.7181 21.1493 22.2183C21.6525 21.7184 21.9357 21.0403 21.9371 20.333H21.9371ZM18.1107 20.333C18.1107 20.0318 18.231 19.7429 18.4453 19.53C18.6594 19.317 18.9499 19.1972 19.2528 19.1972C19.5555 19.1972 19.8461 19.317 20.0603 19.53C20.2744 19.7429 20.3947 20.0318 20.3947 20.333C20.3947 20.6342 20.2744 20.9232 20.0603 21.1361C19.8461 21.349 19.5555 21.4686 19.2528 21.4686C18.9501 21.4681 18.6599 21.3481 18.446 21.1354C18.2319 20.9224 18.1114 20.634 18.1107 20.333Z"/>
<path d="M5.30452 3.69809L4.4141 0H0V1.53137H3.20022L5.86912 12.6127V12.6125C5.44683 13.0887 5.2263 13.7089 5.25347 14.3432C5.28065 14.9775 5.55368 15.5767 6.01535 16.0154C6.47702 16.4539 7.09138 16.6978 7.72976 16.696H21.7676V15.1646H7.72701C7.39225 15.1646 7.08309 14.9871 6.91572 14.6989C6.74835 14.4107 6.74835 14.0557 6.91572 13.7675C7.0831 13.4792 7.39224 13.3016 7.72701 13.3016H21.6159L24 3.69778L5.30452 3.69809ZM20.4102 11.7706H7.2499L5.67421 5.22938H22.0346L20.4102 11.7706Z"/>
<path d="M7.75308 23C8.46432 23 9.14651 22.7191 9.64937 22.2188C10.1524 21.7187 10.4349 21.0403 10.4349 20.333C10.4349 19.6257 10.1524 18.9473 9.64937 18.4472C9.14651 17.9469 8.46432 17.666 7.75308 17.666C7.04184 17.666 6.35965 17.947 5.85679 18.4472C5.35374 18.9473 5.07126 19.6257 5.07126 20.333C5.07252 21.04 5.35553 21.7175 5.85821 22.2174C6.36089 22.7173 7.04221 22.9986 7.75308 23ZM7.75308 19.1948C8.0558 19.1948 8.34614 19.3144 8.56024 19.5271C8.77434 19.7399 8.89482 20.0286 8.895 20.3296C8.89535 20.6307 8.77523 20.9194 8.5615 21.1325C8.34775 21.3458 8.05758 21.4658 7.7547 21.4661C7.45199 21.4667 7.16147 21.3476 6.947 21.135C6.73254 20.9224 6.6117 20.6341 6.61099 20.333C6.61099 20.0316 6.73129 19.7423 6.94539 19.529C7.15949 19.3156 7.45004 19.1954 7.7531 19.1947L7.75308 19.1948Z"/>
</svg>
