<svg viewBox="0 0 16 16" xmlns="http://www.w3.org/2000/svg">
<path fill-rule="evenodd" clip-rule="evenodd" d="M0.666626 6.33333C0.666626 3.94011 2.60672 2 4.99996 2C6.16464 2 7.22188 2.45988 7.99996 3.20645C8.77804 2.45988 9.83528 2 11 2C13.3932 2 15.3333 3.94011 15.3333 6.33333C15.3333 8.42274 14.1093 10.3329 12.682 11.7743C11.2482 13.2223 9.4947 14.3145 8.2102 14.7414C8.07371 14.7867 7.92621 14.7867 7.78972 14.7414C6.50521 14.3145 4.7517 13.2223 3.31791 11.7743C1.8906 10.3329 0.666626 8.42274 0.666626 6.33333ZM4.99996 3.33333C3.34311 3.33333 1.99996 4.67649 1.99996 6.33333C1.99996 7.91059 2.94265 9.50041 4.26534 10.8362C5.49631 12.0793 6.95785 13.0014 7.99996 13.4007C9.04207 13.0014 10.5036 12.0793 11.7346 10.8362C13.0573 9.50041 14 7.91059 14 6.33333C14 4.67649 12.6568 3.33333 11 3.33333C9.98588 3.33333 9.08909 3.83586 8.54504 4.60844C8.42016 4.78577 8.21684 4.89127 7.99996 4.89127C7.78308 4.89127 7.57975 4.78577 7.45488 4.60844C6.91083 3.83586 6.01404 3.33333 4.99996 3.33333Z"/>
</svg>
