<svg viewBox="0 0 23 16" xmlns="http://www.w3.org/2000/svg">
<path fill-rule="evenodd" clip-rule="evenodd" d="M2.67 6.02C2.67 5.00536 3.48536 4.19 4.5 4.19H8.06V8.23H7.5V4.75H4.50029C3.79493 4.75 3.23 5.31464 3.23 6.02V8.23H2.67V6.02Z"/>
<path fill-rule="evenodd" clip-rule="evenodd" d="M1.40348 7.99945L1.35402 7.95H8.06V13.8H5.2V13.52C5.2 12.8146 4.63536 12.25 3.93 12.25C3.23347 12.25 2.66 12.8158 2.66 13.52V13.8H3.76171e-06V9.85C-0.000416689 9.82464 3.76171e-06 9.80061 3.76171e-06 9.78C3.76171e-06 8.91234 0.596248 8.1904 1.40348 7.99945ZM1.83 8.51C1.12464 8.51 0.560004 9.07464 0.560004 9.78C0.560004 9.81744 0.561023 9.8648 0.562104 9.91508C0.562668 9.94131 0.56325 9.96834 0.563712 9.99517C0.564338 10.0315 0.56475 10.0686 0.564167 10.0978C0.563901 10.1111 0.56332 10.1303 0.56135 10.1491C0.561103 10.1514 0.560692 10.1553 0.560004 10.1604V13.24H2.12128C2.25661 12.3586 3.02066 11.69 3.93 11.69C4.84938 11.69 5.60515 12.3594 5.73895 13.24H7.5V8.51H2.06752C2.04667 8.51319 2.02968 8.51379 2.02378 8.514C2.00059 8.51485 1.97257 8.51424 1.95177 8.51363C1.93264 8.51306 1.91511 8.51242 1.89912 8.51184C1.87173 8.51083 1.84882 8.51 1.83 8.51Z"/>
<path fill-rule="evenodd" clip-rule="evenodd" d="M3.93 12.25C3.23346 12.25 2.66 12.8158 2.66 13.52C2.66 14.2242 3.23346 14.79 3.93 14.79C4.63536 14.79 5.2 14.2254 5.2 13.52C5.2 12.8146 4.63536 12.25 3.93 12.25ZM2.1 13.52C2.1 12.5042 2.92654 11.69 3.93 11.69C4.94464 11.69 5.76 12.5054 5.76 13.52C5.76 14.5346 4.94464 15.35 3.93 15.35C2.92654 15.35 2.1 14.5358 2.1 13.52Z"/>
<path fill-rule="evenodd" clip-rule="evenodd" d="M4.07143 13.638C4.10813 13.5985 4.12 13.5532 4.12 13.52C4.12 13.473 4.10255 13.4339 4.07784 13.4054C4.05244 13.3761 4.0023 13.34 3.93 13.34C3.81748 13.34 3.75 13.4339 3.75 13.52C3.75 13.5536 3.76243 13.6034 3.80451 13.6455C3.84659 13.6876 3.89637 13.7 3.93 13.7C3.98242 13.7 4.0344 13.6779 4.07143 13.638ZM3.56 13.52C3.56 13.3253 3.70618 13.14 3.93 13.14C4.02363 13.14 4.12341 13.1724 4.20049 13.2495C4.27757 13.3266 4.31 13.4264 4.31 13.52C4.31 13.7061 4.16252 13.9 3.93 13.9C3.8077 13.9 3.71256 13.8389 3.65466 13.7721C3.59744 13.7061 3.56 13.617 3.56 13.52Z"/>
<path fill-rule="evenodd" clip-rule="evenodd" d="M17.73 13.7C17.8161 13.7 17.91 13.6325 17.91 13.52C17.91 13.4539 17.8798 13.4113 17.8592 13.3908C17.8387 13.3702 17.7961 13.34 17.73 13.34C17.6175 13.34 17.55 13.4339 17.55 13.52C17.55 13.5536 17.5624 13.6034 17.6045 13.6455C17.6466 13.6876 17.6964 13.7 17.73 13.7ZM17.35 13.52C17.35 13.2875 17.5439 13.14 17.73 13.14C17.8236 13.14 17.9234 13.1724 18.0005 13.2495C18.0776 13.3266 18.11 13.4264 18.11 13.52C18.11 13.7061 17.9625 13.9 17.73 13.9C17.6139 13.9 17.5213 13.8448 17.4633 13.7867C17.4052 13.7287 17.35 13.6361 17.35 13.52Z"/>
<path fill-rule="evenodd" clip-rule="evenodd" d="M10.2635 0.0494565L10.214 0H22.48V13.8H19V13.52C19 12.8146 18.4354 12.25 17.73 12.25C17.0335 12.25 16.46 12.8158 16.46 13.52V13.8H8.86V1.9C8.85958 1.87465 8.86 1.85061 8.86 1.83C8.86 0.962341 9.45625 0.240407 10.2635 0.0494565ZM10.69 0.56C9.98464 0.56 9.42 1.12464 9.42 1.83C9.42 1.86744 9.42102 1.91481 9.4221 1.96508C9.42267 1.99132 9.42325 2.01835 9.42371 2.04517C9.42434 2.08146 9.42475 2.11861 9.42417 2.14779C9.4239 2.16109 9.42332 2.18027 9.42135 2.19906C9.4211 2.20142 9.42069 2.20531 9.42 2.21035V13.24H15.9213C16.0566 12.3586 16.8207 11.69 17.73 11.69C18.6494 11.69 19.4051 12.3594 19.539 13.24H21.92V0.56H10.9275C10.9067 0.563191 10.8897 0.563796 10.8838 0.564006C10.8606 0.564854 10.8326 0.564241 10.8118 0.563629C10.7926 0.563066 10.7751 0.562425 10.7591 0.56184C10.7317 0.560838 10.7088 0.56 10.69 0.56Z"/>
<path fill-rule="evenodd" clip-rule="evenodd" d="M17.73 12.25C17.0335 12.25 16.46 12.8158 16.46 13.52C16.46 14.2242 17.0335 14.79 17.73 14.79C18.4354 14.79 19 14.2254 19 13.52C19 12.8146 18.4354 12.25 17.73 12.25ZM15.9 13.52C15.9 12.5042 16.7265 11.69 17.73 11.69C18.7446 11.69 19.56 12.5054 19.56 13.52C19.56 14.5346 18.7446 15.35 17.73 15.35C16.7265 15.35 15.9 14.5358 15.9 13.52Z"/>
<path fill-rule="evenodd" clip-rule="evenodd" d="M22.2 10.9H9.14V10.34H22.2V10.9Z"/>
<path fill-rule="evenodd" clip-rule="evenodd" d="M7.78 10.9H0.279999V10.34H7.78V10.9Z"/>
<path fill-rule="evenodd" clip-rule="evenodd" d="M5.44 8.23001V6.35001H6V8.23001H5.44Z"/>
<path fill-rule="evenodd" clip-rule="evenodd" d="M18.7134 2.3611L19.0116 2.82416L16.7524 4.94449L17.6673 6.1931L12.6364 8.25901L12.3384 7.79581L14.5876 5.68548L13.6729 4.43721L18.7134 2.3611ZM14.5471 4.68278L15.3324 5.75452L13.8314 7.16292L16.7927 5.94689L16.0076 4.8755L17.5158 3.45999L14.5471 4.68278Z"/>
</svg>
