<svg viewBox="0 0 20 20" xmlns="http://www.w3.org/2000/svg">
<path fill-rule="evenodd" clip-rule="evenodd" d="M11.81 12.21C10.9757 12.21 10.31 12.8836 10.31 13.71C10.31 14.5364 10.9757 15.21 11.81 15.21C12.6333 15.21 13.3 14.5374 13.3 13.71C13.3 12.8826 12.6333 12.21 11.81 12.21ZM9.75 13.71C9.75 12.5764 10.6643 11.65 11.81 11.65C12.9467 11.65 13.86 12.5774 13.86 13.71C13.86 14.8426 12.9467 15.77 11.81 15.77C10.6643 15.77 9.75 14.8436 9.75 13.71Z"/>
<path fill-rule="evenodd" clip-rule="evenodd" d="M11.81 13.17C11.5024 13.17 11.26 13.4168 11.26 13.71C11.26 14.0109 11.5002 14.25 11.81 14.25C12.1076 14.25 12.35 14.0131 12.35 13.71C12.35 13.4146 12.1054 13.17 11.81 13.17ZM10.7 13.71C10.7 13.1032 11.1976 12.61 11.81 12.61C12.4146 12.61 12.91 13.1054 12.91 13.71C12.91 14.3269 12.4124 14.81 11.81 14.81C11.1998 14.81 10.7 14.3291 10.7 13.71Z"/>
<path fill-rule="evenodd" clip-rule="evenodd" d="M3.28 9.61H5.71V10.17H3.28V9.61Z"/>
<path fill-rule="evenodd" clip-rule="evenodd" d="M5.82524 8.68348L4.68524 8.27348L4.87476 7.74652L6.01476 8.15652L5.82524 8.68348Z"/>
<path fill-rule="evenodd" clip-rule="evenodd" d="M6.01476 11.6135L4.87476 12.0235L4.68524 11.4965L5.82524 11.0865L6.01476 11.6135Z"/>
<path fill-rule="evenodd" clip-rule="evenodd" d="M16.59 10.17H14.16V9.61H16.59V10.17Z"/>
<path fill-rule="evenodd" clip-rule="evenodd" d="M13.8552 8.15652L14.9952 7.74652L15.1848 8.27348L14.0448 8.68348L13.8552 8.15652Z"/>
<path fill-rule="evenodd" clip-rule="evenodd" d="M14.0448 11.0865L15.1848 11.4965L14.9952 12.0235L13.8552 11.6135L14.0448 11.0865Z"/>
<path fill-rule="evenodd" clip-rule="evenodd" d="M13.0779 4.40114L14.2731 5.25715L6.79071 15.4709L5.59824 14.6007L13.0779 4.40114ZM13.2021 5.17885L6.38176 14.4793L6.66929 14.6891L13.4869 5.38283L13.2021 5.17885Z"/>
<path fill-rule="evenodd" clip-rule="evenodd" d="M8.12 4.59C7.29361 4.59 6.62 5.25566 6.62 6.09C6.62 6.91536 7.29464 7.59 8.12 7.59C8.94536 7.59 9.62 6.91536 9.62 6.09C9.62 5.25566 8.94638 4.59 8.12 4.59ZM6.06 6.09C6.06 4.94434 6.98638 4.03 8.12 4.03C9.25361 4.03 10.18 4.94434 10.18 6.09C10.18 7.22464 9.25464 8.15 8.12 8.15C6.98536 8.15 6.06 7.22464 6.06 6.09Z"/>
<path fill-rule="evenodd" clip-rule="evenodd" d="M8.12 5.54C7.81905 5.54 7.58 5.78018 7.58 6.09C7.58 6.38759 7.81686 6.63 8.12 6.63C8.41536 6.63 8.66 6.38536 8.66 6.09C8.66 5.78242 8.41315 5.54 8.12 5.54ZM7.02 6.09C7.02 5.47981 7.50094 4.98 8.12 4.98C8.72684 4.98 9.22 5.47757 9.22 6.09C9.22 6.69464 8.72464 7.19 8.12 7.19C7.50313 7.19 7.02 6.6924 7.02 6.09Z"/>
<path fill-rule="evenodd" clip-rule="evenodd" d="M11.9148 -0.00164795L13.4544 1.42427L15.5627 1.50695L16.4414 3.41951L18.3522 4.30776L18.4452 6.40558L19.8716 7.95606L19.1481 9.93025L19.8716 11.9148L18.4452 13.4549L18.3522 15.5631L16.4411 16.4411L15.5631 18.3522L13.4549 18.4452L11.9141 19.8722L9.93025 19.1386L7.95671 19.8722L6.40558 18.4452L4.30776 18.3522L3.41951 16.4414L1.50695 15.5627L1.42427 13.4544L-0.00164795 11.9148L0.721878 9.93025L-0.00164747 7.95606L1.42427 6.40615L1.50695 4.30815L3.41921 3.41921L4.30815 1.50695L6.40615 1.42427L7.95606 -0.00164747L9.93025 0.721878L11.9148 -0.00164795ZM11.7852 0.641644L9.92975 1.31812L8.08394 0.641644L6.63385 1.97573L4.67184 2.05305L3.84079 3.84079L2.05305 4.67184L1.97573 6.63385L0.641644 8.08394L1.31812 9.92975L0.641644 11.7852L1.97573 13.2256L2.05305 15.1973L3.84049 16.0186L4.67224 17.8078L6.63442 17.8948L8.08329 19.2278L9.92974 18.5414L11.7859 19.2278L13.2251 17.8948L15.1969 17.8078L16.0189 16.0189L17.8078 15.1969L17.8948 13.2251L19.2284 11.7852L18.5519 9.92975L19.2284 8.08394L17.8948 6.63442L17.8078 4.67224L16.0186 3.84049L15.1973 2.05305L13.2256 1.97573L11.7852 0.641644Z"/>
<path fill-rule="evenodd" clip-rule="evenodd" d="M9.93 2.42C5.81488 2.42 2.47 5.7644 2.47 9.89C2.47 14.0054 5.81464 17.35 9.93 17.35C14.0556 17.35 17.4 14.0051 17.4 9.89C17.4 5.76464 14.0554 2.42 9.93 2.42ZM1.91 9.89C1.91 5.4556 5.50513 1.86 9.93 1.86C14.3646 1.86 17.96 5.45536 17.96 9.89C17.96 14.3149 14.3644 17.91 9.93 17.91C5.50536 17.91 1.91 14.3146 1.91 9.89Z"/>
</svg>
