<svg viewBox="0 0 15 17" xmlns="http://www.w3.org/2000/svg">
<path fill-rule="evenodd" clip-rule="evenodd" d="M8.48388 9.43589L9.50396 8.47827L9.88724 8.88655L8.86716 9.84417L8.48388 9.43589Z"/>
<path fill-rule="evenodd" clip-rule="evenodd" d="M9.41554 10.3123L10.4259 9.35472L10.8111 9.76117L9.80077 10.7188L9.41554 10.3123Z"/>
<path fill-rule="evenodd" clip-rule="evenodd" d="M10.3404 11.1222L11.3605 10.1737L11.7418 10.5838L10.7218 11.5323L10.3404 11.1222Z"/>
<path fill-rule="evenodd" clip-rule="evenodd" d="M0.106377 2.1911C2.71342 0.278182 6.0014 -0.0246277 7.5 -0.0246277C8.9986 -0.0246277 12.2866 0.278182 14.8936 2.1911L15.008 2.27501V8.34211C15.008 9.55144 15.008 10.9531 14.0603 12.4336C13.1131 13.9132 11.2466 15.433 7.60929 16.9751L7.5 17.0214L7.39071 16.9751C3.75337 15.433 1.88694 13.9132 0.939699 12.4336C-0.00801712 10.9531 -0.00799734 9.55144 -0.0079802 8.34211L-0.00798008 2.27501L0.106377 2.1911ZM0.55202 2.56011V8.32673C0.55202 9.53987 0.556079 10.7956 1.41134 12.1316C2.26232 13.461 3.98309 14.9074 7.5 16.4129C11.0169 14.9074 12.7377 13.461 13.5887 12.1316C14.4439 10.7956 14.448 9.53987 14.448 8.32673V2.56011C12.0017 0.825349 8.93235 0.535372 7.5 0.535372C6.06765 0.535372 2.99831 0.825349 0.55202 2.56011Z"/>
<path fill-rule="evenodd" clip-rule="evenodd" d="M8.7326 7.34926L12.2185 10.6121C12.6181 10.9872 12.6184 11.6032 12.2188 11.9783C11.8294 12.3439 11.205 12.3439 10.8155 11.9783L7.31538 8.69249L8.7326 7.34926ZM8.73501 8.11854L8.1315 8.69055L11.1988 11.57C11.3728 11.7333 11.6616 11.7333 11.8356 11.57C11.9994 11.4162 11.9995 11.1747 11.8358 11.0208C11.8357 11.0208 11.8358 11.0209 11.8358 11.0208L8.73501 8.11854Z"/>
<path fill-rule="evenodd" clip-rule="evenodd" d="M5.66652 9.68912C5.07478 9.13362 4.11564 9.13362 3.5239 9.68912L3.52199 9.69091C3.20723 9.98093 3.06617 10.3671 3.09111 10.7466L3.66878 10.1986C4.05722 9.84652 4.67654 9.84658 5.06499 10.1987L5.07225 10.2052C5.45735 10.5797 5.45723 11.1901 5.07213 11.5645L5.06757 11.5689L4.53184 12.0665C4.94363 12.085 5.35791 11.9473 5.66462 11.6539L5.66651 11.6521C6.24818 11.106 6.24819 10.2352 5.66652 9.68912ZM3.14157 9.27995C3.94886 8.52304 5.2429 8.52334 6.0498 9.28084C6.86678 10.0478 6.8671 11.2922 6.05076 12.0595C5.45157 12.6318 4.57911 12.7635 3.84718 12.4928L3.4202 12.3349L4.68374 11.161C4.83953 11.0075 4.84003 10.7644 4.68524 10.6103C4.51049 10.4556 4.22102 10.456 4.04697 10.6117L2.83259 11.7638L2.67575 11.39C2.37916 10.6832 2.52828 9.84574 3.14157 9.27995Z"/>
<path fill-rule="evenodd" clip-rule="evenodd" d="M10.9307 3.38518C10.5182 3.36775 10.1012 3.50901 9.79199 3.80481L9.78869 3.80796C9.20975 4.3439 9.20759 5.22273 9.79009 5.76957C10.3818 6.32508 11.341 6.32508 11.9327 5.76957L11.9346 5.76778C12.2492 5.47797 12.3908 5.09133 12.3691 4.71088L11.7908 5.24815C11.4044 5.6103 10.7804 5.61595 10.3977 5.24762C9.99512 4.879 10.0015 4.26341 10.3972 3.89136L10.9307 3.38518ZM9.40656 3.39854C10.0037 2.82866 10.875 2.68519 11.6094 2.9568L12.0315 3.11287L10.781 4.2991C10.615 4.45496 10.6204 4.69367 10.7774 4.83599L10.7847 4.84258C10.9462 4.99958 11.2322 5.00446 11.4081 4.83931L11.4092 4.83831L12.6398 3.69504L12.792 4.07226C13.0764 4.77698 12.9283 5.61295 12.315 6.17874C11.5078 6.93565 10.2137 6.93535 9.40681 6.17785C8.5909 5.4119 8.58821 4.15783 9.40656 3.39854Z"/>
<path fill-rule="evenodd" clip-rule="evenodd" d="M9.30311 4.91843L9.45858 5.29142C9.53162 5.46665 9.63584 5.62477 9.79009 5.76957C9.94455 5.91457 10.1153 6.01437 10.307 6.08481L10.7323 6.24104L6.16342 10.5408L6.00775 10.1673C5.93538 9.99367 5.82312 9.82853 5.67209 9.69421L5.66644 9.68919L5.66108 9.68387C5.52201 9.54607 5.34626 9.44614 5.14957 9.37388L4.72369 9.21744L9.30311 4.91843ZM5.73498 9.03617C5.84582 9.1042 5.95218 9.18486 6.04985 9.28076C6.16091 9.38036 6.2567 9.49091 6.33737 9.60808L9.72359 6.42137C9.61335 6.35293 9.50759 6.27247 9.40681 6.17786C9.2972 6.07496 9.2049 5.96604 9.12726 5.8516L5.73498 9.03617Z"/>
<path fill-rule="evenodd" clip-rule="evenodd" d="M2.96574 3.24328C3.35522 2.87765 3.97963 2.87765 4.36911 3.24328L5.01402 3.84871L4.79657 4.05285C4.73376 4.11181 4.64539 4.19552 4.54481 4.2908C4.29447 4.52793 3.96849 4.83672 3.77276 5.0139L3.5814 5.18713L2.96574 4.60918C2.5662 4.2341 2.5662 3.61836 2.96574 3.24328ZM3.98582 3.65156C3.81183 3.48822 3.52302 3.48822 3.34903 3.65156C3.1851 3.80545 3.1851 4.04701 3.34903 4.2009L3.58674 4.42405C3.76273 4.26026 3.97442 4.05973 4.15216 3.89135C4.1672 3.87711 4.182 3.86309 4.19651 3.84935L3.98582 3.65156Z"/>
<path fill-rule="evenodd" clip-rule="evenodd" d="M5.51856 4.32156L8.1331 6.78683L6.70245 8.11709L4.08896 5.66363L5.51856 4.32156ZM4.90715 5.66363L6.70428 7.35071L7.31379 6.78398L5.51771 5.09045L4.90715 5.66363Z"/>
<path fill-rule="evenodd" clip-rule="evenodd" d="M7.28855 3.95219C6.62846 3.34204 5.55306 3.34267 4.89371 3.96165L3.62104 5.15639C3.28931 5.46781 2.78864 5.52044 2.39981 5.31428C2.35148 5.36067 2.30144 5.40838 2.25479 5.4527L3.81931 6.91419C3.82215 6.91156 3.825 6.90891 3.82786 6.90625C3.87304 6.86431 3.92109 6.81947 3.96748 6.77577C3.75769 6.40709 3.81527 5.9387 4.14023 5.62476C4.14111 5.6238 4.14185 5.62302 4.1424 5.62243C4.1476 5.61693 4.15331 5.61118 4.15813 5.60637C4.16835 5.59618 4.18227 5.58261 4.1986 5.56684C4.23158 5.53498 4.27817 5.49049 4.3334 5.438C4.44403 5.33286 4.59131 5.19374 4.73831 5.05517C4.88538 4.91654 5.03242 4.77821 5.14268 4.67456L5.32644 4.50191L5.51813 4.706L5.70976 4.91016L5.52624 5.08258C5.41609 5.18613 5.26925 5.32427 5.12243 5.46266C4.97556 5.60111 4.82896 5.73959 4.71918 5.84392C4.68215 5.87912 4.64953 5.91022 4.62261 5.93601V5.93986L4.53426 6.0228C4.36062 6.18581 4.36062 6.43649 4.53426 6.5995L4.74558 6.79789L4.54001 7.00223C4.45362 7.0881 4.31921 7.21422 4.20889 7.31664C4.15321 7.36834 4.10275 7.41484 4.06623 7.44842L4.0229 7.48818L4.00713 7.5026L3.81587 7.6773L1.43622 5.45436L1.65421 5.24972L1.71253 5.19482C1.74865 5.16078 1.7985 5.11369 1.85347 5.06152C1.96413 4.9565 2.09309 4.83317 2.17307 4.75366L2.36491 4.56298L2.56211 4.74811C2.74581 4.92057 3.05405 4.92057 3.23776 4.74811L4.51043 3.55336C5.3855 2.73188 6.79588 2.73198 7.67091 3.54303L7.67437 3.54624L8.34399 4.18829L7.42678 5.04935L7.19505 4.94058L7.16263 4.91014C6.76519 4.53704 6.1072 4.53705 5.70976 4.91016L5.51813 4.706L5.32644 4.50191C5.87909 3.9831 6.74128 3.93203 7.3548 4.34882L7.53035 4.18401L7.28855 3.95219Z"/>
</svg>
