<svg xmlns="http://www.w3.org/2000/svg" width="21.68" height="25.63" viewBox="0 0 21.68 25.63">
	<style type="text/css">
		.st1{stroke:#303030;fill:none;stroke-width:1.6;stroke-linejoin:round;}
		.st0{stroke:#303030;fill:none;stroke-width:1.6;stroke-linecap:round;stroke-linejoin:round;}
	</style>
	<path class="st0" d="M0.8,12.78L7.09,12.78L7.09,9.18L0.8,9.18"/>
	<path class="st0" d="M20.88,9.18L14.86,9.18L14.86,12.78L20.88,12.78"/>
	<path class="st1" d="M12.1,6.84C13.3,6.4 14.17,5.27 14.17,3.92C14.17,2.19 12.77,0.8 11.05,0.8C9.32,0.8 7.93,2.19 7.93,3.92C7.93,5.22 8.73,6.33 9.86,6.8C9.68,7.3 9.01,8.74 7.09,9.15L7.09,12.86C7.09,12.86 9.34,13.87 9.34,20.62L8.03,21.93L8.03,24.83L10.28,24.83L11.66,24.83L13.91,24.83L13.91,21.93L12.61,20.62C12.61,13.87 14.86,12.86 14.86,12.86L14.86,9.15C12.99,8.75 12.3,7.37 12.1,6.84Z"/>
</svg>