<svg xmlns="http://www.w3.org/2000/svg" width="22.88" height="18.14" viewBox="0 0 22.88 18.14">
	<style type="text/css">
		.st0{stroke:#303030;fill:none;stroke-width:1.6;stroke-linejoin:round;}
	</style>
	<path class="st0" d="M6.24,6.77C2.99,7.25 0.8,8.15 0.8,9.18"/>
	<path class="st0" d="M22.08,9.18C22.08,8.14 19.86,7.24 16.59,6.76"/>
	<path class="st0" d="M0.8,9.17L0.8,9.18C0.8,9.18 0.8,9.17 0.8,9.17L0.8,9.17Z"/>
	<path class="st0" d="M22.08,9.17C22.08,9.17 22.08,9.18 22.08,9.18C22.08,10.71 17.32,11.95 11.44,11.95C5.56,11.95 0.8,10.71 0.8,9.18L0.8,14.58C0.8,16.1 5.56,17.34 11.44,17.34C17.32,17.34 22.08,16.1 22.08,14.58L22.08,9.17L22.08,9.17Z"/>
	<path class="st0" d="M16.59,11.6L16.59,5.22C16.59,2.62 14.48,0.8 11.88,0.8L10.87,0.8C8.31,0.8 6.24,2.59 6.24,5.15L6.24,11.59"/>
</svg>