<svg xmlns="http://www.w3.org/2000/svg" width="25.03" height="24.84" viewBox="0 0 25.03 24.84">
	<style type="text/css">
		.st1{stroke:#303030;fill:none;stroke-width:1.79;stroke-linecap:round;stroke-linejoin:round;}
		.st0{stroke:#303030;fill:none;stroke-width:1.79;stroke-linejoin:round;}
	</style>
	<path class="st0" d="M22.86,22.09C20.97,24.3 17.63,24.56 15.42,22.67C13.2,20.77 12.94,17.44 14.83,15.22C16.73,13 20.07,12.74 22.28,14.64C24.5,16.53 24.76,19.87 22.86,22.09Z"/>
	<path class="st1" d="M1.34,22.19L21.97,2.32"/>
	<path class="st0" d="M13.46,4.37L4.36,13.47L1.48,10.59L10.58,1.49L13.46,4.37Z"/>
	<path class="st0" d="M7.92,4.15L4.15,7.92L1.56,5.33C0.67,4.45 0.67,3.01 1.56,2.12L2.12,1.56C3.01,0.67 4.45,0.67 5.33,1.56L7.92,4.15Z"/>
	<path class="st1" d="M19.52,16.9L20.67,18.05"/>
</svg>