<svg xmlns="http://www.w3.org/2000/svg" width="25.11" height="25" viewBox="0 0 25.11 25">
	<style type="text/css">
		.st0{stroke:#303030;fill:none;stroke-width:1.79;stroke-linecap:round;stroke-linejoin:round;}
	</style>
	<path class="st0" d="M14.24,19.74C16.97,19.96 19.24,18.51 21.11,16.64C24.97,12.78 25.26,6.82 21.77,3.33C18.28,-0.15 12.32,0.14 8.46,4C6.59,5.87 5.14,8.5 5.37,11.23C5.37,11.23 5.47,13 5.51,14.38C5.56,15.8 5.77,16.62 4.32,17.8C2.82,19.01 1.77,19.78 1.42,20.13C0.54,21.01 0.85,22.5 1.73,23.38C2.61,24.26 3.91,24.38 4.79,23.5C5.14,23.15 6.09,22.28 7.3,20.79C8.48,19.33 9.3,19.54 10.72,19.59C12.1,19.64 14.24,19.74 14.24,19.74Z"/>
	<path class="st0" d="M5.63,10.63L14.49,19.49"/>
</svg>