<svg xmlns="http://www.w3.org/2000/svg" viewBox="0 0 19.57 19.57">
	<style type="text/css">
		.st0{stroke:#303030;fill:none;stroke-width:1.5;stroke-linecap:round;stroke-linejoin:round;}
	</style>
	<path class="st0" d="M16.65,15.66C13.41,19.45 7.7,19.9 3.91,16.65C0.12,13.41 -0.32,7.7 2.91,3.91C6.16,0.12 11.87,-0.32 15.66,2.91C19.45,6.16 19.9,11.87 16.65,15.66Z"/>
	<path class="st0" d="M12.68,9.09C12.05,9.83 10.95,9.92 10.21,9.29C9.47,8.66 9.39,7.55 10.02,6.81C10.65,6.08 11.75,5.99 12.49,6.62C13.23,7.25 13.31,8.36 12.68,9.09Z"/>
	<path class="st0" d="M10.43,12.49C9.62,13.43 8.2,13.54 7.26,12.73C6.32,11.93 6.21,10.51 7.02,9.57C7.82,8.63 9.24,8.52 10.18,9.32C11.12,10.13 11.23,11.54 10.43,12.49Z"/>
</svg>