<svg xmlns="http://www.w3.org/2000/svg" width="102.85" height="77.64" viewBox="0 0 102.85 77.64">
	<style type="text/css">
		.st1{fill:#ec5d4f;stroke-linecap:round;stroke-linejoin:round;}
		.st0{stroke:#201a17;fill:none;stroke-width:2;stroke-linecap:round;stroke-linejoin:round;}
	</style>
	<path class="st0" d="M79.84,69.96L70.95,70.08L70.95,28.29L89.28,28.29C90.31,28.29 91.28,28.83 91.81,29.72L101.43,45.79C101.7,46.25 101.85,46.78 101.85,47.31L101.85,58L101.85,64.13L101.85,69.74L92.95,69.86"/>
	<path class="st0" d="M83.02,49.65L80.6,49.65"/>
	<path class="st0" d="M79.84,70.08C79.84,73.7 82.78,76.64 86.4,76.64C90.02,76.64 92.95,73.7 92.95,70.08C92.95,66.46 90.02,63.53 86.4,63.53C82.78,63.53 79.84,66.46 79.84,70.08Z"/>
	<path class="st0" d="M85.24,70.08C85.24,70.72 85.76,71.25 86.4,71.25C87.04,71.25 87.56,70.72 87.56,70.08C87.56,69.44 87.04,68.92 86.4,68.92C85.76,68.92 85.24,69.44 85.24,70.08Z"/>
	<path class="st0" d="M70.5,58.81L10.24,58.81L8.52,58.81L8.52,70.05L13.7,70.05"/>
	<path class="st0" d="M70.5,70.05L26.81,70.05"/>
	<path class="st0" d="M101.85,58L97.37,58L97.37,64.13L101.85,64.13"/>
	<path class="st0" d="M10.24,58.81L10.24,42.37"/>
	<path class="st0" d="M41.31,20.65L65.82,20.65C68.66,20.65 70.95,22.95 70.95,25.78L70.95,31.23"/>
	<path class="st0" d="M35.02,20.65C32.51,14.01 26.1,9.3 18.57,9.3C8.87,9.3 1,17.17 1,26.88C1,33.58 4.74,39.4 10.24,42.37C12.72,43.71 15.56,44.47 18.57,44.47C28.29,44.47 36.16,36.6 36.16,26.88C36.16,24.69 35.76,22.58 35.02,20.65Z"/>
	<path class="st0" d="M20.85,5.52L16.3,5.52C15.18,5.52 14.27,4.61 14.27,3.49L14.27,3.02C14.27,1.9 15.18,0.99 16.3,0.99L20.85,0.99C21.97,0.99 22.88,1.9 22.88,3.02L22.88,3.49C22.88,4.61 21.97,5.52 20.85,5.52Z"/>
	<path class="st0" d="M16.89,5.52L16.89,9.13"/>
	<path class="st0" d="M20.26,5.52L20.26,9.13"/>
	<path class="st0" d="M33.42,11.49L30.34,8.41C29.99,8.06 29.99,7.49 30.34,7.14L31.36,6.12C31.71,5.77 32.28,5.77 32.63,6.12L35.71,9.2C36.06,9.55 36.06,10.12 35.71,10.47L34.69,11.49C34.34,11.84 33.77,11.84 33.42,11.49Z"/>
	<path class="st0" d="M31.03,9.1L28.39,11.73"/>
	<path class="st0" d="M32.73,10.8L30.09,13.43"/>
	<path class="st0" d="M3.73,11.49L6.81,8.41C7.16,8.06 7.16,7.49 6.81,7.14L5.79,6.12C5.44,5.77 4.87,5.77 4.52,6.12L1.44,9.2C1.09,9.55 1.09,10.12 1.44,10.47L2.46,11.49C2.81,11.84 3.38,11.84 3.73,11.49Z"/>
	<path class="st0" d="M6.12,9.1L8.76,11.73"/>
	<path class="st0" d="M4.42,10.8L7.06,13.43"/>
	<path class="st0" d="M101.43,45.79L70.95,45.79"/>
	<path class="st0" d="M74.42,28.3L76.54,45.79L76.54,70.01"/>
	<path class="st1" d="M32.29,26.88C32.29,34.46 26.15,40.6 18.58,40.6C11,40.6 4.86,34.46 4.86,26.88C4.86,19.31 11,13.16 18.58,13.16C26.15,13.16 32.29,19.31 32.29,26.88"/>
	<path class="st0" d="M32.29,26.88C32.29,34.46 26.15,40.6 18.58,40.6C11,40.6 4.86,34.46 4.86,26.88C4.86,19.31 11,13.16 18.58,13.16C26.15,13.16 32.29,19.31 32.29,26.88Z"/>
	<path class="st0" d="M18.57,18.5L18.57,26.88L22.82,22.64"/>
	<path class="st0" d="M13.7,70.08C13.7,73.7 16.64,76.64 20.26,76.64C23.88,76.64 26.81,73.7 26.81,70.08C26.81,66.46 23.88,63.53 20.26,63.53C16.64,63.53 13.7,66.46 13.7,70.08Z"/>
	<path class="st0" d="M19.09,70.08C19.09,70.72 19.62,71.25 20.26,71.25C20.9,71.25 21.42,70.72 21.42,70.08C21.42,69.44 20.9,68.92 20.26,68.92C19.62,68.92 19.09,69.44 19.09,70.08Z"/>
</svg>