<svg xmlns="http://www.w3.org/2000/svg" width="95.15" height="94.89" viewBox="0 0 95.15 94.89">
	<style type="text/css">
		.st2{stroke:#201a17;fill:#ffffff;stroke-width:2;stroke-linecap:round;stroke-linejoin:round;}
		.st1{fill:#ec5d4f;stroke-linecap:round;stroke-linejoin:round;}
		.st0{stroke:#201a17;fill:none;stroke-width:2;stroke-linecap:round;stroke-linejoin:round;}
	</style>
	<path class="st0" d="M94.15,62.06C94.15,79.64 79.9,93.89 62.32,93.89C44.74,93.89 30.49,79.64 30.49,62.06C30.49,44.48 44.74,30.23 62.32,30.23C79.9,30.23 94.15,44.48 94.15,62.06Z"/>
	<path class="st0" d="M28.81,18.93L28.81,49.12"/>
	<path class="st0" d="M28.81,18.93L34.46,18.93C39.14,18.93 42.94,22.72 42.94,27.4C42.94,32.08 39.14,35.88 34.46,35.88L23.31,35.88"/>
	<path class="st0" d="M37.91,41.18L23.31,41.18"/>
	<path class="st0" d="M30.49,62.06C30.49,61.06 30.54,60.08 30.63,59.11C17.09,57.99 6.45,46.65 6.45,32.82C6.45,18.26 18.26,6.45 32.83,6.45C46.57,6.45 57.86,16.97 59.09,30.4C60.15,30.29 61.23,30.23 62.32,30.23C63.07,30.23 63.81,30.27 64.55,30.32C63.27,13.91 49.56,0.99 32.83,0.99C15.25,0.99 1,15.25 1,32.82C1,49.65 14.06,63.42 30.6,64.57C30.53,63.74 30.49,62.91 30.49,62.06Z"/>
	<path class="st1" d="M88.7,62.06C88.7,76.63 76.89,88.44 62.32,88.44C47.75,88.44 35.94,76.63 35.94,62.06C35.94,47.49 47.75,35.68 62.32,35.68C76.89,35.68 88.7,47.49 88.7,62.06"/>
	<path class="st0" d="M88.7,62.06C88.7,76.63 76.89,88.44 62.32,88.44C47.75,88.44 35.94,76.63 35.94,62.06C35.94,47.49 47.75,35.68 62.32,35.68C76.89,35.68 88.7,47.49 88.7,62.06Z"/>
	<path class="st2" d="M59.14,48.11L59.14,78.3"/>
	<path class="st0" d="M59.14,48.11L64.79,48.11C69.47,48.11 73.27,51.9 73.27,56.58C73.27,61.26 69.47,65.06 64.79,65.06L53.64,65.06"/>
	<path class="st2" d="M69.74,70.36L53.64,70.36"/>
</svg>