<svg xmlns="http://www.w3.org/2000/svg" width="69.74" height="87.01" viewBox="0 0 69.74 87.01">
	<style type="text/css">
		.st2{stroke:#201a17;fill:#ec5d4f;stroke-width:2;stroke-linecap:round;stroke-linejoin:round;}
		.st1{stroke-linecap:round;stroke-linejoin:round;}
		.st3{fill:#ec5d4f;stroke-linecap:round;stroke-linejoin:round;}
		.st0{stroke:#201a17;fill:none;stroke-width:2;stroke-linecap:round;stroke-linejoin:round;}
	</style>
	<path class="st0" d="M56.13,0.99L1,0.99L1,86.01L68.74,86.01L68.74,13.6L56.13,0.99Z"/>
	<path class="st0" d="M8.56 33.18L16.91 33.18L16.91 41.54L8.56 41.54Z"/>
	<path class="st0" d="M8.56 61.18L16.91 61.18L16.91 69.54L8.56 69.54Z"/>
	<path class="st0" d="M28.98,37.36L56.81,37.36"/>
	<path class="st0" d="M28.98,47.58L56.81,47.58"/>
	<path class="st0" d="M28.98,65.36L56.81,65.36"/>
	<path class="st0" d="M28.98,75.58L56.81,75.58"/>
	<path class="st0" d="M6.9,32.83L12.73,38.66L23.13,28.27"/>
	<path class="st0" d="M6.9,60.54L12.73,66.38L23.13,55.98"/>
	<path class="st0" d="M68.74,13.6L56.13,13.6L56.13,1L68.74,13.6Z"/>
	<path class="st2" d="M11.81 8.38L45.81 8.38L45.81 12.85L11.81 12.85Z"/>
	<path class="st3" d="M15.41,20.56L12.83,20.56L11.93,12.85L16.31,12.85Z"/>
	<path class="st0" d="M15.41,20.56L12.83,20.56L11.93,12.85L16.31,12.85L15.41,20.56Z"/>
	<path class="st3" d="M44.78,20.56L42.21,20.56L41.31,12.85L45.68,12.85Z"/>
	<path class="st0" d="M44.78,20.56L42.21,20.56L41.31,12.85L45.68,12.85L44.78,20.56Z"/>
	<path class="st3" d="M30.1,20.56L27.52,20.56L26.62,12.85L31,12.85Z"/>
	<path class="st0" d="M30.1,20.56L27.52,20.56L26.62,12.85L31,12.85L30.1,20.56Z"/>
</svg>