<svg xmlns="http://www.w3.org/2000/svg" width="115.84" height="87.93" viewBox="0 0 115.84 87.93">
	<style type="text/css">
		.st1{fill:#ec675c;stroke-linecap:round;stroke-linejoin:round;}
		.st0{stroke:#221f1f;fill:none;stroke-width:2;stroke-linecap:round;stroke-linejoin:round;}
	</style>
	<path class="st0" d="M12.28,37.86C15.77,52.88 20.88,58.36 30.99,67.02C46.17,80.03 58.71,74.93 64.93,86.93"/>
	<path class="st0" d="M10.44,20.48C10.44,20.48 3.69,35.45 12.57,37.69C18.74,30.46 10.44,20.48 10.44,20.48Z"/>
	<path class="st0" d="M1,47.34C1,47.34 12.75,42.49 17.12,51.33C12.22,59.1 1,47.34 1,47.34Z"/>
	<path class="st0" d="M11.87,66C11.87,66 21.75,58.2 28.84,65.51C26.51,74.27 11.87,66 11.87,66Z"/>
	<path class="st0" d="M24.71,38.16C24.71,38.16 11.2,43.39 17.12,51.33C26.48,50.82 24.71,38.16 24.71,38.16Z"/>
	<path class="st0" d="M32.14,50.89C32.14,50.89 20.52,59.48 28.84,65.51C37.84,62.54 32.14,50.89 32.14,50.89Z"/>
	<path class="st0" d="M28.06,80.82C28.06,80.82 35.55,70.7 44.31,75.89C44.37,84.95 28.06,80.82 28.06,80.82Z"/>
	<path class="st0" d="M43.65,60.91C43.65,60.91 34.69,72.26 44.31,75.89C52.21,70.66 43.65,60.91 43.65,60.91Z"/>
	<path class="st0" d="M103.55,37.86C100.07,52.88 94.96,58.36 84.85,67.02C69.66,80.03 57.12,74.93 50.9,86.93"/>
	<path class="st0" d="M105.39,20.48C105.39,20.48 112.15,35.45 103.27,37.69C97.1,30.46 105.39,20.48 105.39,20.48Z"/>
	<path class="st0" d="M114.84,47.34C114.84,47.34 103.09,42.49 98.72,51.33C103.61,59.1 114.84,47.34 114.84,47.34Z"/>
	<path class="st0" d="M103.97,66C103.97,66 94.08,58.2 87,65.51C89.32,74.27 103.97,66 103.97,66Z"/>
	<path class="st0" d="M91.13,38.16C91.13,38.16 104.64,43.39 98.72,51.33C89.36,50.82 91.13,38.16 91.13,38.16Z"/>
	<path class="st0" d="M83.69,50.89C83.69,50.89 95.32,59.48 87,65.51C78,62.54 83.69,50.89 83.69,50.89Z"/>
	<path class="st0" d="M87.77,80.82C87.77,80.82 80.29,70.7 71.53,75.89C71.47,84.95 87.77,80.82 87.77,80.82Z"/>
	<path class="st0" d="M72.18,60.91C72.18,60.91 81.14,72.26 71.53,75.89C63.63,70.66 72.18,60.91 72.18,60.91Z"/>
	<path class="st1" d="M86.71,29.57C86.71,45.35 73.92,58.15 58.13,58.15C42.35,58.15 29.56,45.35 29.56,29.57C29.56,13.79 42.35,0.99 58.13,0.99C73.92,0.99 86.71,13.79 86.71,29.57"/>
	<path class="st0" d="M86.71,29.57C86.71,45.35 73.92,58.15 58.13,58.15C42.35,58.15 29.56,45.35 29.56,29.57C29.56,13.79 42.35,0.99 58.13,0.99C73.92,0.99 86.71,13.79 86.71,29.57Z"/>
	<path class="st0" d="M47.51,21.04L47.51,43.81L52.11,43.81L52.11,15.59"/>
	<path class="st0" d="M42.33,26.03L52.11,15.59"/>
	<path class="st0" d="M59.12,26.03L68.9,15.59"/>
	<path class="st0" d="M64.31,21.04L64.31,43.81L68.92,43.81L68.92,15.59"/>
</svg>