<svg xmlns="http://www.w3.org/2000/svg" width="78.78" height="95.12" viewBox="0 0 78.78 95.12">
	<style type="text/css">
		.st1{fill:#ec5d4f;stroke-linecap:round;stroke-linejoin:round;}
		.st0{stroke:#201a17;fill:none;stroke-width:2;stroke-linecap:round;stroke-linejoin:round;}
	</style>
	<path class="st0" d="M26.48,49.34L15.53,60.29C13.55,62.28 13.55,65.5 15.53,67.48C17.52,69.47 20.74,69.47 22.72,67.48L33.67,56.53L26.48,49.34Z"/>
	<path class="st0" d="M36.78,53.43L29.59,46.24L31.74,44.08L38.93,51.27L36.78,53.43Z"/>
	<path class="st0" d="M32.2,55.06L27.96,50.82L31.06,47.71L35.3,51.95L32.2,55.06Z"/>
	<path class="st0" d="M46.29,38.85L63.19,21.95L64.06,18.96L61.07,19.83L44.2,36.7"/>
	<path class="st1" d="M58.17,52.29C56.47,52.57 54.72,52.04 53.5,50.81L32.2,29.52C30.98,28.29 30.44,26.55 30.72,24.84C31.11,22.48 30.53,20.14 28.89,18.51C26.67,16.29 23.17,15.99 20.06,17.45L25.22,22.62L23.98,26.49L20.11,27.73L14.94,22.57C13.48,25.68 13.78,29.19 16,31.4C17.63,33.04 19.97,33.63 22.33,33.24C24.04,32.95 25.78,33.49 27.01,34.71L48.3,56.01C49.53,57.23 50.06,58.98 49.78,60.69C49.39,63.05 49.98,65.39 51.62,67.02C53.83,69.24 57.33,69.53 60.45,68.07L55.29,62.91L56.53,59.04L60.4,57.8L65.56,62.96C67.02,59.85 66.73,56.34 64.51,54.13C62.87,52.49 60.54,51.9 58.17,52.29"/>
	<path class="st0" d="M58.17,52.29C56.47,52.57 54.72,52.04 53.5,50.81L32.2,29.52C30.98,28.29 30.44,26.55 30.72,24.84C31.11,22.48 30.53,20.14 28.89,18.51C26.67,16.29 23.17,15.99 20.06,17.45L25.22,22.62L23.98,26.49L20.11,27.73L14.94,22.57C13.48,25.68 13.78,29.19 16,31.4C17.63,33.04 19.97,33.63 22.33,33.24C24.04,32.95 25.78,33.49 27.01,34.71L48.3,56.01C49.53,57.23 50.06,58.98 49.78,60.69C49.39,63.05 49.98,65.39 51.62,67.02C53.83,69.24 57.33,69.53 60.45,68.07L55.29,62.91L56.53,59.04L60.4,57.8L65.56,62.96C67.02,59.85 66.73,56.34 64.51,54.13C62.87,52.49 60.54,51.9 58.17,52.29Z"/>
	<path class="st0" d="M28.07,30.58L52.43,54.94"/>
	<path class="st0" d="M30.04,52.9L18.98,63.95"/>
	<path class="st0" d="M39.38,0.99C31.53,0.99 14.47,2.72 0.99,13.21L0.99,46.65C0.99,60.39 0.99,76.81 39.38,94.12C77.78,76.81 77.78,60.39 77.78,46.65L77.78,13.21C64.29,2.72 47.24,0.99 39.38,0.99Z"/>
</svg>