<svg xmlns="http://www.w3.org/2000/svg" width="81.5" height="98.83" viewBox="0 0 81.5 98.83">
	<style type="text/css">
		.st1{fill:#ec5d4f;stroke-linecap:round;stroke-linejoin:round;}
		.st0{stroke:#201a17;fill:none;stroke-width:2;stroke-linecap:round;stroke-linejoin:round;}
	</style>
	<path class="st0" d="M80.5,24.63L67.33,24.63L67.33,7.58C67.33,3.94 70.28,0.99 73.92,0.99C77.55,0.99 80.5,3.94 80.5,7.58L80.5,24.63Z"/>
	<path class="st0" d="M35,79.68L67.33,79.68L67.33,7.58C67.33,3.94 70.28,1 73.92,1L67.33,1L17.12,1C13.48,1 10.54,3.94 10.54,7.58L10.54,60.48"/>
	<path class="st0" d="M16.84,85.41L9.18,97.83L6.95,92.28L1,92.79L8.12,81.23"/>
	<path class="st0" d="M20.99,85.41L28.65,97.83L30.87,92.28L36.83,92.79L29.71,81.23"/>
	<path class="st0" d="M20.99,14.34L55.01,14.34"/>
	<path class="st0" d="M20.99,26.94L55.01,26.94"/>
	<path class="st0" d="M20.99,39.54L55.01,39.54"/>
	<path class="st0" d="M20.99,52.14L55.01,52.14"/>
	<path class="st0" d="M36.83,64.74L55.01,64.74"/>
	<path class="st1" d="M18.91,56.54L23.8,59.75L29.52,60.93L30.7,66.66L33.91,71.54L30.7,76.42L29.52,82.14L23.8,83.32L18.91,86.53L14.03,83.32L8.31,82.14L7.13,76.42L3.92,71.54L7.13,66.66L8.31,60.93L14.03,59.75Z"/>
	<path class="st0" d="M18.91,56.54L23.8,59.75L29.52,60.93L30.7,66.66L33.91,71.54L30.7,76.42L29.52,82.14L23.8,83.32L18.91,86.53L14.03,83.32L8.31,82.14L7.13,76.42L3.92,71.54L7.13,66.66L8.31,60.93L14.03,59.75L18.91,56.54Z"/>
	<path class="st0" d="M27.29,71.54C27.29,76.16 23.54,79.91 18.91,79.91C14.29,79.91 10.54,76.16 10.54,71.54C10.54,66.91 14.29,63.16 18.91,63.16C23.54,63.16 27.29,66.91 27.29,71.54Z"/>
	<path class="st0" d="M15.5,72.39L17.97,74.81L21.97,69.69"/>
</svg>