<svg xmlns="http://www.w3.org/2000/svg" width="19.87" height="19.87" viewBox="0 0 19.87 19.87">
	<style type="text/css">
		.st0{stroke:#ee6757;fill:none;stroke-width:0.56;}
	</style>
	<path class="st0" d="M13.58,13.71C13.58,14.69 12.79,15.49 11.81,15.49C10.82,15.49 10.03,14.69 10.03,13.71C10.03,12.73 10.82,11.93 11.81,11.93C12.79,11.93 13.58,12.73 13.58,13.71Z"/>
	<path class="st0" d="M12.63,13.71C12.63,14.17 12.26,14.53 11.81,14.53C11.35,14.53 10.98,14.17 10.98,13.71C10.98,13.26 11.35,12.89 11.81,12.89C12.26,12.89 12.63,13.26 12.63,13.71Z"/>
	<path class="st0" d="M5.71,9.89L3.28,9.89"/>
	<path class="st0" d="M4.78,8.01L5.92,8.42"/>
	<path class="st0" d="M4.78,11.76L5.92,11.35"/>
	<path class="st0" d="M14.16,9.89L16.59,9.89"/>
	<path class="st0" d="M15.09,8.01L13.95,8.42"/>
	<path class="st0" d="M15.09,11.76L13.95,11.35"/>
	<path class="st0" d="M6.73,15.08L5.99,14.54L13.14,4.79L13.88,5.32L6.73,15.08Z"/>
	<path class="st0" d="M6.34,6.09C6.34,5.1 7.14,4.31 8.12,4.31C9.1,4.31 9.9,5.1 9.9,6.09C9.9,7.07 9.1,7.87 8.12,7.87C7.14,7.87 6.34,7.07 6.34,6.09Z"/>
	<path class="st0" d="M7.3,6.09C7.3,5.63 7.66,5.26 8.12,5.26C8.57,5.26 8.94,5.63 8.94,6.09C8.94,6.54 8.57,6.91 8.12,6.91C7.66,6.91 7.3,6.54 7.3,6.09Z"/>
	<path class="st0" d="M9.93,1.02L11.85,0.32L13.34,1.7L15.38,1.78L16.23,3.63L18.08,4.49L18.17,6.52L19.55,8.02L18.85,9.93L19.55,11.85L18.17,13.34L18.08,15.38L16.23,16.23L15.38,18.08L13.34,18.17L11.85,19.55L9.93,18.84L8.02,19.55L6.52,18.17L4.49,18.08L3.63,16.23L1.78,15.38L1.7,13.34L0.32,11.85L1.02,9.93L0.32,8.02L1.7,6.52L1.78,4.49L3.63,3.63L4.49,1.78L6.52,1.7L8.02,0.32L9.93,1.02Z"/>
	<path class="st0" d="M17.68,9.89C17.68,14.16 14.21,17.63 9.93,17.63C5.66,17.63 2.19,14.16 2.19,9.89C2.19,5.61 5.66,2.14 9.93,2.14C14.21,2.14 17.68,5.61 17.68,9.89Z"/>
</svg>