<svg xmlns="http://www.w3.org/2000/svg" width="22.49" height="15.35" viewBox="0 0 22.49 15.35">
	<style type="text/css">
		.st0{stroke:#b3b3b3;fill:none;stroke-width:0.56;}
	</style>
	<path class="st0" d="M7.78,8.23L7.78,4.47L4.66,4.47C4.66,4.47 4.55,4.47 4.5,4.47C3.64,4.47 2.95,5.16 2.95,6.02C2.95,6.08 2.95,6.2 2.95,6.2L2.95,8.23"/>
	<path class="st0" d="M2.03,8.23C2.04,8.24 1.9,8.23 1.83,8.23C0.97,8.23 0.28,8.92 0.28,9.78C0.28,9.9 0.29,10.13 0.28,10.13L0.28,13.52L2.38,13.52C2.38,12.66 3.08,11.97 3.93,11.97C4.79,11.97 5.48,12.66 5.48,13.52L7.78,13.52L7.78,8.23L2.03,8.23Z"/>
	<path class="st0" d="M5.48,13.52C5.48,14.38 4.79,15.07 3.93,15.07C3.08,15.07 2.38,14.38 2.38,13.52C2.38,12.66 3.08,11.97 3.93,11.97C4.79,11.97 5.48,12.66 5.48,13.52Z"/>
	<path class="st0" d="M4.03,13.52C4.03,13.57 3.99,13.62 3.93,13.62C3.88,13.62 3.84,13.57 3.84,13.52C3.84,13.46 3.88,13.42 3.93,13.42C3.99,13.42 4.03,13.46 4.03,13.52Z"/>
	<path class="st0" d="M17.83,13.52C17.83,13.57 17.79,13.62 17.73,13.62C17.68,13.62 17.63,13.57 17.63,13.52C17.63,13.46 17.68,13.42 17.73,13.42C17.79,13.42 17.83,13.46 17.83,13.52Z"/>
	<path class="st0" d="M16.64,0.28L11.91,0.28L10.89,0.28C10.9,0.29 10.76,0.28 10.69,0.28C9.83,0.28 9.14,0.97 9.14,1.83C9.14,1.95 9.15,2.18 9.14,2.18L9.14,2.76L9.14,13.52L16.18,13.52C16.18,12.66 16.88,11.97 17.73,11.97C18.59,11.97 19.28,12.66 19.28,13.52L22.2,13.52L22.2,0.28L16.64,0.28Z"/>
	<path class="st0" d="M19.28,13.52C19.28,14.38 18.59,15.07 17.73,15.07C16.88,15.07 16.18,14.38 16.18,13.52C16.18,12.66 16.88,11.97 17.73,11.97C18.59,11.97 19.28,12.66 19.28,13.52Z"/>
	<path class="st0" d="M9.14,10.62L22.2,10.62"/>
	<path class="st0" d="M0.28,10.62L7.78,10.62"/>
	<path class="st0" d="M5.72,6.35L5.72,8.23"/>
	<path class="st0" d="M18.82,2.62L14.11,4.56L14.96,5.72L12.53,8L17.23,6.07L16.38,4.91L18.82,2.62Z"/>
</svg>