<svg xmlns="http://www.w3.org/2000/svg" width="15.44" height="18.64" viewBox="0 0 15.44 18.64">
	<style type="text/css">
		.st0{stroke:#b3b3b3;fill:none;stroke-width:0.56;}
	</style>
	<path class="st0" d="M4.26,8.82L4.26,8.82"/>
	<path class="st0" d="M4.26,8.82L4.26,8.82"/>
	<path class="st0" d="M9.98,9.52L8.93,10.57"/>
	<path class="st0" d="M10.93,10.48L9.89,11.53"/>
	<path class="st0" d="M11.89,11.38L10.84,12.42"/>
	<path class="st0" d="M7.72,0.28C6.2,0.28 2.89,0.61 0.28,2.65L0.28,9.13C0.28,11.79 0.28,14.97 7.72,18.33C15.16,14.97 15.16,11.79 15.16,9.13L15.16,2.65C12.55,0.61 9.24,0.28 7.72,0.28Z"/>
	<path class="st0" d="M12.38,11.86L8.99,8.48L7.95,9.53L11.33,12.91C11.62,13.2 12.09,13.2 12.38,12.91C12.67,12.62 12.67,12.15 12.38,11.86Z"/>
	<path class="st0" d="M4.06,13.41L5.02,12.46C5.3,12.17 5.3,11.7 5.02,11.41C4.73,11.13 4.26,11.13 3.97,11.41L3.02,12.37C2.76,11.71 2.89,10.93 3.43,10.4C4.15,9.68 5.31,9.68 6.03,10.4C6.75,11.12 6.75,12.28 6.03,13C5.5,13.54 4.72,13.67 4.06,13.41Z"/>
	<path class="st0" d="M11.85,3.53L10.9,4.49C10.61,4.78 10.61,5.25 10.9,5.53C11.18,5.82 11.65,5.82 11.94,5.53L12.9,4.58C13.15,5.24 13.02,6.02 12.48,6.55C11.76,7.27 10.6,7.27 9.88,6.55C9.16,5.83 9.16,4.66 9.88,3.95C10.41,3.41 11.19,3.27 11.85,3.53Z"/>
	<path class="st0" d="M9.88,6.55C9.69,6.36 9.56,6.15 9.47,5.92L5.4,9.99C5.63,10.08 5.85,10.21 6.03,10.4C6.22,10.58 6.36,10.8 6.45,11.03L10.51,6.96C10.28,6.87 10.07,6.74 9.88,6.55Z"/>
	<path class="st0" d="M3.69,5.27C3.97,5 4.51,4.45 4.74,4.22L4.3,3.78C4.01,3.49 3.54,3.49 3.25,3.78C2.96,4.07 2.96,4.54 3.25,4.83L3.69,5.27Z"/>
	<path class="st0" d="M4.63,6.21L6.9,8.48L7.95,7.44L5.68,5.16C5.67,5.17 4.96,5.88 4.63,6.21Z"/>
	<path class="st0" d="M4.84,4.12C5.63,3.33 6.91,3.33 7.7,4.11L8.17,4.59L7.59,5.17L7.57,5.16C7.05,4.64 6.2,4.64 5.68,5.16C5.68,5.16 4.47,6.37 4.47,6.38C4.17,6.68 4.17,7.16 4.47,7.46C4.3,7.64 3.93,8 3.93,8L1.9,5.98C1.9,5.98 2.27,5.61 2.44,5.43C2.74,5.73 3.23,5.73 3.53,5.43C3.53,5.43 4.84,4.12 4.84,4.12Z"/>
</svg>