<svg xmlns="http://www.w3.org/2000/svg" width="186.43" height="45.35" viewBox="0 0 186.43 45.35">
	<style type="text/css">
		.st0{fill:#000;}
	</style>
	<path class="st0" d="M0,1.19L0,4.51L6.36,4.51L6.36,29.8L9.68,29.8L9.68,4.51L16.09,4.51L16.09,1.19Z"/>
	<path class="st0" d="M49.81,13.37L45.35,13.37L45.35,4.51L49.81,4.51C52.26,4.51 54.27,6.52 54.27,8.97C54.27,11.42 52.26,13.37 49.81,13.37M49.81,26.59L45.35,26.59L45.35,16.75L49.81,16.75C52.53,16.75 54.82,18.98 54.82,21.75C54.82,24.41 52.59,26.59 49.81,26.59M54.65,15.01C56.45,13.54 57.54,11.31 57.54,8.97C57.54,4.67 54.05,1.19 49.76,1.19L41.98,1.19L41.98,29.8L49.76,29.8C54.27,29.8 57.97,26.1 57.97,21.59C58.02,19.03 56.77,16.58 54.65,15.01"/>
	<path class="st0" d="M68.36,1.19L65.04,1.19L65.04,29.8L78.31,29.8L78.31,26.59L68.36,26.59Z"/>
	<path class="st0" d="M83.75,29.8L99.79,29.8L99.79,26.59L87.07,26.59L87.07,4.51L99.79,4.51L99.79,1.19L83.75,1.19Z"/>
	<path class="st0" d="M91.63,10.98C92.88,10.98 93.86,10 93.86,8.75C93.86,7.5 92.88,6.52 91.63,6.52C90.38,6.52 89.4,7.5 89.4,8.75C89.4,10 90.38,10.98 91.63,10.98"/>
	<path class="st0" d="M91.8,20.06C93.03,20.06 94.03,21.06 94.03,22.29C94.03,23.52 93.03,24.52 91.8,24.52C90.57,24.52 89.57,23.52 89.57,22.29C89.57,21.06 90.57,20.06 91.8,20.06"/>
	<path class="st0" d="M91.63,17.78C92.88,17.78 93.86,16.8 93.86,15.55C93.86,14.3 92.88,13.32 91.63,13.32C90.38,13.32 89.4,14.3 89.4,15.55C89.4,16.8 90.38,17.78 91.63,17.78"/>
	<path class="st0" d="M119.75,12.07C119.75,16.26 116.38,19.63 112.19,19.63L109.91,19.63L109.91,4.51L112.19,4.51C116.33,4.51 119.75,7.88 119.75,12.07M112.14,1.19L106.54,1.19L106.54,29.8L109.85,29.8L109.85,22.95L112.14,22.95C118.12,22.95 123.02,18.05 123.02,12.07C123.02,6.09 118.18,1.19 112.14,1.19"/>
	<path class="st0" d="M132.64,1.19L129.43,1.19L129.43,29.8L142.7,29.8L142.7,26.59L132.64,26.59Z"/>
	<path class="st0" d="M182.51,1.19L176.31,10.98L170.17,1.19L166.2,1.19L174.68,14.52L174.68,29.8L178,29.8L178,14.52L186.43,1.19Z"/>
	<path class="st0" d="M23.33,21.64L25.77,14.14L26.86,10.71L30.4,21.59L23.33,21.59ZM17.24,29.8L20.72,29.8L22.29,24.85L31.43,24.85L33.01,29.8L36.49,29.8L26.97,0Z"/>
	<path class="st0" d="M153.25,21.64L155.7,14.14L156.79,10.71L160.32,21.59L153.25,21.59ZM147.16,29.8L150.64,29.8L152.22,24.85L161.36,24.85L162.93,29.8L166.41,29.8L156.9,0Z"/>
	<path class="st0" d="M10.36,42.77L10.36,38.06L8.09,40.66L5.82,38.06L5.82,42.77L4.42,42.77L4.42,35.77L5.3,35.77L8.09,38.96L10.88,35.77L11.76,35.77L11.76,42.77Z"/>
	<path class="st0" d="M19.55,39.27C19.55,37.94 18.52,37.01 17.36,37.01C16.19,37.01 15.17,37.94 15.17,39.27C15.17,40.6 16.19,41.51 17.36,41.51C18.52,41.51 19.55,40.6 19.55,39.27M19.89,42.77L19.81,41.48C19.29,42.31 18.34,42.85 17.23,42.85C15.24,42.85 13.77,41.26 13.77,39.27C13.77,37.28 15.24,35.67 17.23,35.67C18.34,35.67 19.29,36.23 19.81,37.06L19.89,35.77L20.84,35.77L20.84,42.77Z"/>
	<path class="st0" d="M24.68,42.77L23.28,42.77L23.28,35.77L28.61,35.77L28.61,37.11L24.68,37.11Z"/>
	<path class="st0" d="M35.51,39.27C35.51,37.94 34.48,37.01 33.31,37.01C32.15,37.01 31.13,37.94 31.13,39.27C31.13,40.6 32.15,41.51 33.31,41.51C34.48,41.51 35.51,40.6 35.51,39.27M35.85,42.77L35.76,41.48C35.25,42.31 34.29,42.85 33.19,42.85C31.2,42.85 29.73,41.26 29.73,39.27C29.73,37.28 31.2,35.67 33.19,35.67C34.29,35.67 35.25,36.23 35.76,37.06L35.85,35.77L36.8,35.77L36.8,42.77Z"/>
	<path class="st0" d="M44.71,40.74C44.71,42.15 43.52,42.85 41.87,42.87L41.69,42.87C40.27,42.87 39.01,42.17 38.59,41.5L39.36,40.67C39.84,41.2 40.69,41.59 41.66,41.59L41.83,41.59C42.68,41.59 43.31,41.24 43.31,40.54C43.31,40 43,39.61 42.12,39.59L40.95,39.59L40.95,38.72L41.98,38.72C42.71,38.71 42.99,38.36 42.99,37.88C42.99,37.24 42.42,36.94 41.72,36.94L41.59,36.94C40.78,36.94 40.09,37.27 39.57,37.77L38.83,36.96C39.42,36.26 40.5,35.67 41.7,35.67L41.83,35.67C43.21,35.67 44.38,36.36 44.38,37.57C44.38,38.25 44.1,38.85 43.37,39.11C44.28,39.31 44.71,39.91 44.71,40.74"/>
	<path class="st0" d="M51.79,42.77L51.79,38.06L47.68,42.77L46.79,42.77L46.79,35.77L48.19,35.77L48.19,40.47L52.31,35.77L53.19,35.77L53.19,42.77Z"/>
	<path class="st0" d="M60.72,42.77L60.72,39.9L57.04,39.9L57.04,42.77L55.64,42.77L55.64,35.77L57.04,35.77L57.04,38.55L60.72,38.55L60.72,35.77L62.12,35.77L62.12,42.77Z"/>
	<path class="st0" d="M73.92,42.77L73.92,38.06L69.81,42.77L68.92,42.77L68.92,35.77L70.32,35.77L70.32,40.47L74.44,35.77L75.33,35.77L75.33,42.77Z"/>
	<path class="st0" d="M79.17,42.77L77.77,42.77L77.77,35.77L83.09,35.77L83.09,37.11L79.17,37.11Z"/>
	<path class="st0" d="M86.01,39.27C86.01,40.6 87.05,41.51 88.21,41.51C89.38,41.51 90.4,40.6 90.4,39.27C90.4,37.94 89.38,37.03 88.21,37.03C87.05,37.03 86.01,37.94 86.01,39.27M91.79,39.27C91.79,41.26 90.32,42.87 88.33,42.87C87.39,42.87 86.56,42.39 86.11,41.71L86.11,45.35L84.71,45.35L84.71,35.77L85.66,35.77L85.75,37.06C86.27,36.23 87.22,35.68 88.33,35.68C90.32,35.68 91.79,37.28 91.79,39.27"/>
	<path class="st0" d="M94.74,39.27C94.74,40.6 95.76,41.51 96.93,41.51C98.09,41.51 99.13,40.6 99.13,39.27C99.13,37.94 98.09,37.01 96.93,37.01C95.76,37.01 94.74,37.94 94.74,39.27M100.53,39.27C100.53,41.26 98.92,42.85 96.93,42.85C94.94,42.85 93.34,41.26 93.34,39.27C93.34,37.28 94.94,35.67 96.93,35.67C98.92,35.67 100.53,37.28 100.53,39.27"/>
	<path class="st0" d="M106.26,41.58C107.15,41.58 107.47,41.19 107.47,40.63C107.47,40.08 107.16,39.68 106.28,39.68L103.94,39.66L103.94,41.58ZM103.94,38.64L106.14,38.64C106.87,38.64 107.15,38.27 107.15,37.8C107.15,37.32 106.85,36.96 106.12,36.96L103.94,36.96ZM106.21,35.77C107.85,35.77 108.53,36.51 108.53,37.63C108.53,38.3 108.27,38.86 107.55,39.12C108.43,39.31 108.87,39.93 108.87,40.74C108.87,42.13 108.07,42.77 106.22,42.77L102.54,42.77L102.54,35.77Z"/>
	<path class="st0" d="M117.98 35.77L119.38 35.77L119.38 42.77L117.98 42.77ZM117.98,42.77M114.51,41.47C115.51,41.47 115.81,40.95 115.81,40.33C115.81,39.73 115.51,39.21 114.51,39.21L112.33,39.21L112.33,41.47ZM114.35,37.91C116.66,37.91 117.21,39.25 117.21,40.33C117.21,41.43 116.66,42.77 114.35,42.77L110.93,42.77L110.93,35.77L112.33,35.77L112.33,37.91Z"/>
	<path class="st0" d="M122.59,42.77L120.97,42.77L123.8,39.14L121.12,35.77L122.75,35.77L124.62,38.04L126.46,35.77L128.08,35.77L125.41,39.2L128.24,42.77L126.61,42.77L124.58,40.31Z"/>
	<path class="st0" d="M140.21,36.97L139.37,37.88C138.79,37.28 138.18,37.03 137.45,37.03C136.29,37.03 135.26,37.94 135.26,39.27C135.26,40.6 136.29,41.51 137.45,41.51C138.18,41.51 138.79,41.24 139.37,40.66L140.21,41.57C139.55,42.35 138.56,42.85 137.45,42.85C135.46,42.85 133.86,41.26 133.86,39.27C133.86,37.28 135.46,35.68 137.45,35.68C138.56,35.68 139.55,36.19 140.21,36.97"/>
	<path class="st0" d="M145.06,42.77L143.66,42.77L143.66,37.11L141.3,37.11L141.3,35.77L147.45,35.77L147.45,37.11L145.06,37.11Z"/>
	<path class="st0" d="M149.82,39.27C149.82,40.6 150.85,41.51 152.01,41.51C153.17,41.51 154.21,40.6 154.21,39.27C154.21,37.94 153.17,37.01 152.01,37.01C150.85,37.01 149.82,37.94 149.82,39.27M155.61,39.27C155.61,41.26 154,42.85 152.01,42.85C150.02,42.85 148.42,41.26 148.42,39.27C148.42,37.28 150.02,35.67 152.01,35.67C154,35.67 155.61,37.28 155.61,39.27"/>
	<path class="st0" d="M157.89,42.77L156.4,42.77L159.64,35.77L160.51,35.77L163.74,42.77L162.27,42.77L160.07,37.85Z"/>
	<path class="st0" d="M165.88,39.27C165.88,40.6 166.9,41.51 168.07,41.51C169.23,41.51 170.27,40.6 170.27,39.27C170.27,37.94 169.23,37.01 168.07,37.01C166.9,37.01 165.88,37.94 165.88,39.27M171.67,39.27C171.67,41.26 170.06,42.85 168.07,42.85C166.08,42.85 164.48,41.26 164.48,39.27C164.48,37.28 166.08,35.67 168.07,35.67C170.06,35.67 171.67,37.28 171.67,39.27"/>
	<path class="st0" d="M177.32,41.58C178.2,41.58 178.53,41.19 178.53,40.63C178.53,40.08 178.22,39.68 177.34,39.68L175,39.66L175,41.58ZM175,38.64L177.2,38.64C177.92,38.64 178.2,38.27 178.2,37.8C178.2,37.32 177.91,36.96 177.18,36.96L175,36.96ZM177.27,35.77C178.9,35.77 179.59,36.51 179.59,37.63C179.59,38.3 179.32,38.86 178.61,39.12C179.49,39.31 179.93,39.93 179.93,40.74C179.93,42.13 179.13,42.77 177.28,42.77L173.6,42.77L173.6,35.77Z"/>
</svg>