<svg xmlns="http://www.w3.org/2000/svg" width="427.73" height="107.69" viewBox="0 0 427.73 107.69">
	<style type="text/css">
		.st2{fill:#ec5d4e;}
		.st1{fill:#010100;}
		.st4{stroke:#ec5d4e;fill:none;stroke-width:0.25;}
		.st3{fill:#ffffff;}
		.st0{fill:#1a150f;}
	</style>
	<path class="st0" d="M129.74,30.46L140.07,30.46L140.07,71.53L145.46,71.53L145.46,30.46L155.89,30.46L155.89,25.07L129.74,25.07Z"/>
	<path class="st0" d="M209.45,44.86L202.21,44.86L202.21,30.46L209.45,30.46C213.42,30.46 216.69,33.73 216.69,37.7C216.69,41.68 213.42,44.86 209.45,44.86M209.45,66.32L202.21,66.32L202.21,50.33L209.45,50.33C213.87,50.33 217.58,53.96 217.58,58.46C217.58,62.79 213.95,66.32 209.45,66.32M217.31,47.51C220.22,45.12 221.99,41.5 221.99,37.7C221.99,30.72 216.34,25.07 209.36,25.07L196.73,25.07L196.73,71.53L209.36,71.53C216.69,71.53 222.7,65.53 222.7,58.2C222.79,54.04 220.76,50.07 217.31,47.51"/>
	<path class="st0" d="M238.97,25.07L233.58,25.07L233.58,71.53L255.13,71.53L255.13,66.32L238.97,66.32Z"/>
	<path class="st0" d="M263.37,71.53L289.42,71.53L289.42,66.32L268.75,66.32L268.75,30.46L289.42,30.46L289.42,25.07L263.37,25.07Z"/>
	<path class="st0" d="M276.17,40.97C278.21,40.97 279.8,39.38 279.8,37.35C279.8,35.32 278.21,33.73 276.17,33.73C274.14,33.73 272.55,35.32 272.55,37.35C272.55,39.38 274.14,40.97 276.17,40.97"/>
	<path class="st0" d="M276.17,55.72C278.17,55.72 279.8,57.34 279.8,59.34C279.8,61.34 278.17,62.97 276.17,62.97C274.17,62.97 272.55,61.34 272.55,59.34C272.55,57.34 274.17,55.72 276.17,55.72"/>
	<path class="st0" d="M276.17,52.01C278.21,52.01 279.8,50.42 279.8,48.39C279.8,46.36 278.21,44.77 276.17,44.77C274.14,44.77 272.55,46.36 272.55,48.39C272.55,50.42 274.14,52.01 276.17,52.01"/>
	<path class="st0" d="M321.24,42.74C321.24,49.54 315.76,55.02 308.96,55.02L305.25,55.02L305.25,30.46L308.96,30.46C315.67,30.46 321.24,35.94 321.24,42.74M308.87,25.07L299.78,25.07L299.78,71.53L305.16,71.53L305.16,60.4L308.87,60.4C318.59,60.4 326.54,52.45 326.54,42.74C326.54,33.02 318.68,25.07 308.87,25.07"/>
	<path class="st0" d="M341.57,25.07L336.36,25.07L336.36,71.53L357.91,71.53L357.91,66.32L341.57,66.32Z"/>
	<path class="st0" d="M421.37,25.07L411.3,40.97L401.32,25.07L394.87,25.07L408.65,46.71L408.65,71.53L414.04,71.53L414.04,46.71L427.73,25.07Z"/>
	<path class="st0" d="M167.03,58.28L171.01,46.09L172.77,40.53L178.52,58.2L167.03,58.2ZM157.14,71.53L162.79,71.53L165.35,63.5L180.19,63.5L182.76,71.53L188.41,71.53L172.95,23.13Z"/>
	<path class="st0" d="M374.45,58.28L378.42,46.09L380.19,40.53L385.93,58.2L374.45,58.2ZM364.56,71.53L370.21,71.53L372.77,63.5L387.61,63.5L390.17,71.53L395.82,71.53L380.37,23.13Z"/>
	<path class="st1" d="M146.41,92.4L146.41,84.89L142.78,89.03L139.16,84.89L139.16,92.4L136.93,92.4L136.93,81.22L138.33,81.22L142.78,86.32L147.23,81.22L148.64,81.22L148.64,92.4Z"/>
	<path class="st1" d="M161.08,86.81C161.08,84.69 159.43,83.21 157.57,83.21C155.72,83.21 154.08,84.69 154.08,86.81C154.08,88.94 155.72,90.39 157.57,90.39C159.43,90.39 161.08,88.94 161.08,86.81M161.62,92.4L161.49,90.35C160.66,91.66 159.14,92.54 157.37,92.54C154.2,92.54 151.85,89.99 151.85,86.81C151.85,83.64 154.2,81.07 157.37,81.07C159.14,81.07 160.66,81.96 161.49,83.28L161.62,81.22L163.14,81.22L163.14,92.4Z"/>
	<path class="st1" d="M169.27,92.4L167.04,92.4L167.04,81.22L175.53,81.22L175.53,83.37L169.27,83.37Z"/>
	<path class="st1" d="M186.55,86.81C186.55,84.69 184.9,83.21 183.04,83.21C181.19,83.21 179.55,84.69 179.55,86.81C179.55,88.94 181.19,90.39 183.04,90.39C184.9,90.39 186.55,88.94 186.55,86.81M187.09,92.4L186.96,90.35C186.13,91.66 184.61,92.54 182.84,92.54C179.67,92.54 177.32,89.99 177.32,86.81C177.32,83.64 179.67,81.07 182.84,81.07C184.61,81.07 186.13,81.96 186.96,83.28L187.09,81.22L188.61,81.22L188.61,92.4Z"/>
	<path class="st1" d="M201.24,89.16C201.24,91.42 199.34,92.54 196.7,92.56L196.41,92.56C194.15,92.56 192.14,91.44 191.47,90.37L192.7,89.05C193.46,89.9 194.82,90.52 196.36,90.52L196.63,90.52C198,90.52 199,89.97 199,88.85C199,87.98 198.51,87.35 197.1,87.33L195.22,87.33L195.22,85.94L196.88,85.94C198.04,85.92 198.49,85.36 198.49,84.6C198.49,83.57 197.57,83.1 196.45,83.1L196.25,83.1C194.96,83.1 193.86,83.62 193.03,84.42L191.85,83.12C192.79,82.01 194.51,81.07 196.43,81.07L196.63,81.07C198.85,81.07 200.7,82.16 200.7,84.11C200.7,85.18 200.25,86.14 199.09,86.57C200.55,86.88 201.24,87.84 201.24,89.16"/>
	<path class="st1" d="M212.54,92.4L212.54,84.89L205.97,92.4L204.56,92.4L204.56,81.22L206.79,81.22L206.79,88.74L213.37,81.22L214.78,81.22L214.78,92.4Z"/>
	<path class="st1" d="M226.79,92.4L226.79,87.82L220.91,87.82L220.91,92.4L218.68,92.4L218.68,81.22L220.91,81.22L220.91,85.67L226.79,85.67L226.79,81.22L229.03,81.22L229.03,92.4Z"/>
	<path class="st1" d="M247.86,92.4L247.86,84.89L241.29,92.4L239.88,92.4L239.88,81.22L242.12,81.22L242.12,88.74L248.69,81.22L250.1,81.22L250.1,92.4Z"/>
	<path class="st1" d="M256.23,92.4L254,92.4L254,81.22L262.49,81.22L262.49,83.37L256.23,83.37Z"/>
	<path class="st1" d="M267.16,86.81C267.16,88.94 268.82,90.39 270.67,90.39C272.53,90.39 274.16,88.94 274.16,86.81C274.16,84.69 272.53,83.24 270.67,83.24C268.82,83.24 267.16,84.69 267.16,86.81M276.37,86.81C276.37,89.99 274.02,92.56 270.85,92.56C269.35,92.56 268.03,91.8 267.32,90.7L267.32,96.52L265.08,96.52L265.08,81.22L266.6,81.22L266.74,83.28C267.56,81.96 269.08,81.09 270.85,81.09C274.02,81.09 276.37,83.64 276.37,86.81"/>
	<path class="st1" d="M281.09,86.81C281.09,88.94 282.72,90.39 284.58,90.39C286.43,90.39 288.09,88.94 288.09,86.81C288.09,84.69 286.43,83.21 284.58,83.21C282.72,83.21 281.09,84.69 281.09,86.81M290.32,86.81C290.32,89.99 287.75,92.54 284.58,92.54C281.4,92.54 278.85,89.99 278.85,86.81C278.85,83.64 281.4,81.07 284.58,81.07C287.75,81.07 290.32,83.64 290.32,86.81"/>
	<path class="st1" d="M299.48,90.5C300.89,90.5 301.4,89.88 301.4,88.98C301.4,88.11 300.91,87.46 299.5,87.46L295.77,87.44L295.77,90.5ZM295.77,85.81L299.28,85.81C300.44,85.81 300.89,85.23 300.89,84.47C300.89,83.71 300.42,83.12 299.26,83.12L295.77,83.12ZM299.39,81.22C302.01,81.22 303.1,82.41 303.1,84.2C303.1,85.27 302.68,86.16 301.54,86.57C302.94,86.88 303.64,87.86 303.64,89.16C303.64,91.37 302.36,92.4 299.41,92.4L293.53,92.4L293.53,81.22Z"/>
	<path class="st1" d="M318.18 81.22L320.41 81.22L320.41 92.4L318.18 92.4ZM318.18,92.4M312.63,90.32C314.25,90.32 314.71,89.5 314.71,88.51C314.71,87.55 314.25,86.72 312.63,86.72L309.17,86.72L309.17,90.32ZM312.39,84.64C316.08,84.64 316.95,86.79 316.95,88.51C316.95,90.26 316.08,92.4 312.39,92.4L306.93,92.4L306.93,81.22L309.17,81.22L309.17,84.64Z"/>
	<path class="st1" d="M325.54,92.4L322.95,92.4L327.47,86.61L323.19,81.22L325.79,81.22L328.78,84.85L331.71,81.22L334.31,81.22L330.04,86.7L334.55,92.4L331.96,92.4L328.72,88.47Z"/>
	<path class="st1" d="M353.66,83.15L352.32,84.6C351.4,83.64 350.42,83.24 349.25,83.24C347.4,83.24 345.77,84.69 345.77,86.81C345.77,88.94 347.4,90.39 349.25,90.39C350.42,90.39 351.4,89.96 352.32,89.03L353.66,90.48C352.61,91.73 351.02,92.54 349.25,92.54C346.08,92.54 343.53,89.99 343.53,86.81C343.53,83.64 346.08,81.09 349.25,81.09C351.02,81.09 352.61,81.89 353.66,83.15"/>
	<path class="st1" d="M361.41,92.4L359.17,92.4L359.17,83.37L355.39,83.37L355.39,81.22L365.21,81.22L365.21,83.37L361.41,83.37Z"/>
	<path class="st1" d="M369.01,86.81C369.01,88.94 370.64,90.39 372.49,90.39C374.35,90.39 376,88.94 376,86.81C376,84.69 374.35,83.21 372.49,83.21C370.64,83.21 369.01,84.69 369.01,86.81M378.24,86.81C378.24,89.99 375.67,92.54 372.49,92.54C369.32,92.54 366.77,89.99 366.77,86.81C366.77,83.64 369.32,81.07 372.49,81.07C375.67,81.07 378.24,83.64 378.24,86.81"/>
	<path class="st1" d="M381.88,92.4L379.51,92.4L384.67,81.22L386.06,81.22L391.22,92.4L388.88,92.4L385.37,84.55Z"/>
	<path class="st1" d="M394.64,86.81C394.64,88.94 396.27,90.39 398.12,90.39C399.98,90.39 401.63,88.94 401.63,86.81C401.63,84.69 399.98,83.21 398.12,83.21C396.27,83.21 394.64,84.69 394.64,86.81M403.87,86.81C403.87,89.99 401.3,92.54 398.12,92.54C394.95,92.54 392.4,89.99 392.4,86.81C392.4,83.64 394.95,81.07 398.12,81.07C401.3,81.07 403.87,83.64 403.87,86.81"/>
	<path class="st1" d="M412.9,90.5C414.3,90.5 414.82,89.88 414.82,88.98C414.82,88.11 414.33,87.46 412.92,87.46L409.18,87.44L409.18,90.5ZM409.18,85.81L412.69,85.81C413.86,85.81 414.3,85.23 414.3,84.47C414.3,83.71 413.83,83.12 412.67,83.12L409.18,83.12ZM412.81,81.22C415.42,81.22 416.52,82.41 416.52,84.2C416.52,85.27 416.09,86.16 414.95,86.57C416.36,86.88 417.05,87.86 417.05,89.16C417.05,91.37 415.78,92.4 412.83,92.4L406.95,92.4L406.95,81.22Z"/>
	<path class="st2" d="M107.68,53.51C107.87,83.25 83.91,107.5 54.17,107.68C24.44,107.87 0.18,83.91 0,54.17C-0.18,24.43 23.77,0.18 53.51,0C83.25,-0.18 107.5,23.77 107.68,53.51"/>
	<path class="st3" d="M56.12,45.21L52.32,38.67L46.64,28.89L65.52,28.85L59.06,40.09L61.38,44.08L72.44,24.83L39.71,24.9L52.71,47.32L52.72,47.32L60.66,61.01L60.66,61.01L73.21,82.63L77.83,82.62L63.03,57.13L58.44,49.21Z"/>
	<path class="st4" d="M56.12,45.21L52.32,38.67L46.64,28.89L65.52,28.85L59.06,40.09L61.38,44.08L72.44,24.83L39.71,24.9L52.71,47.32L52.72,47.32L60.66,61.01L60.66,61.01L73.21,82.63L77.83,82.62L63.03,57.13L58.44,49.21L56.12,45.21Z"/>
	<path class="st3" d="M29.77,24.91L60.96,78.67L42.09,78.71L48.54,67.47L46.23,63.48L35.17,82.72L67.9,82.65L34.39,24.9Z"/>
	<path class="st4" d="M29.77,24.91L60.96,78.67L42.09,78.71L48.54,67.47L46.23,63.48L35.17,82.72L67.9,82.65L34.39,24.9L29.77,24.91Z"/>
</svg>