<svg xmlns="http://www.w3.org/2000/svg" viewBox="0 0 155.18 120.36"><title>Mastercard Maestro logo</title><path d="M481.33,571.85v-8a4.73,4.73,0,0,0-5-5.05,4.93,4.93,0,0,0-4.47,2.26,4.67,4.67,0,0,0-4.2-2.26,4.21,4.21,0,0,0-3.72,1.89v-1.57h-2.77v12.72H464v-7a3,3,0,0,1,3.11-3.38c1.84,0,2.77,1.2,2.77,3.35v7.08h2.79v-7a3,3,0,0,1,3.11-3.38c1.89,0,2.79,1.2,2.79,3.35v7.08Zm15.59-6.36v-6.36h-2.77v1.54a4.82,4.82,0,0,0-4-1.86,6.69,6.69,0,0,0,0,13.36,4.82,4.82,0,0,0,4-1.86v1.54h2.77Zm-10.3,0a3.81,3.81,0,1,1,0,.31Q486.61,565.64,486.62,565.49Zm69.5-6.69a7.17,7.17,0,0,1,2.73.51,6.66,6.66,0,0,1,2.17,1.41,6.44,6.44,0,0,1,1.43,2.12,7.06,7.06,0,0,1,0,5.31,6.44,6.44,0,0,1-1.43,2.12,6.65,6.65,0,0,1-2.17,1.41,7.53,7.53,0,0,1-5.46,0,6.58,6.58,0,0,1-2.16-1.41,6.5,6.5,0,0,1-1.43-2.12,7.07,7.07,0,0,1,0-5.31,6.51,6.51,0,0,1,1.43-2.12,6.59,6.59,0,0,1,2.16-1.41A7.17,7.17,0,0,1,556.12,558.79Zm0,2.62a4.13,4.13,0,0,0-1.58.3,3.74,3.74,0,0,0-1.26.84,3.9,3.9,0,0,0-.84,1.29,4.63,4.63,0,0,0,0,3.31,3.89,3.89,0,0,0,.84,1.29,3.74,3.74,0,0,0,1.26.84,4.33,4.33,0,0,0,3.16,0,3.81,3.81,0,0,0,1.27-.84,3.86,3.86,0,0,0,.84-1.29,4.63,4.63,0,0,0,0-3.31,3.86,3.86,0,0,0-.84-1.29,3.81,3.81,0,0,0-1.27-.84A4.13,4.13,0,0,0,556.12,561.41ZM512,565.49c0-4-2.47-6.68-6-6.68a6.68,6.68,0,0,0,.19,13.36,7.73,7.73,0,0,0,5.21-1.78l-1.36-2a6.06,6.06,0,0,1-3.7,1.33,3.53,3.53,0,0,1-3.8-3.11h9.44C511.94,566.21,512,565.86,512,565.49Zm-9.47-1.12a3.27,3.27,0,0,1,3.38-3.09,3.16,3.16,0,0,1,3.22,3.09Zm21.12-2a8.2,8.2,0,0,0-4-1.09c-1.52,0-2.42.56-2.42,1.49s1,1.09,2.15,1.25l1.3.19c2.77.4,4.44,1.57,4.44,3.8,0,2.42-2.13,4.15-5.8,4.15a9.17,9.17,0,0,1-5.51-1.65l1.3-2.15a6.78,6.78,0,0,0,4.23,1.33c1.89,0,2.9-.56,2.9-1.54,0-.72-.72-1.12-2.23-1.33l-1.3-.19c-2.85-.4-4.39-1.68-4.39-3.75,0-2.53,2.07-4.07,5.29-4.07a9.51,9.51,0,0,1,5.19,1.33Zm13.29-.72h-4.52v5.75c0,1.28.45,2.13,1.84,2.13a5.11,5.11,0,0,0,2.45-.72l.8,2.37a6.5,6.5,0,0,1-3.46,1c-3.27,0-4.42-1.76-4.42-4.71v-5.8H527v-2.53h2.58v-3.86h2.79v3.86h4.52Zm9.58-2.85a5.91,5.91,0,0,1,2,.35l-.85,2.61a4.51,4.51,0,0,0-1.73-.32c-1.81,0-2.71,1.17-2.71,3.27v7.13H540.4V559.13h2.74v1.54a3.75,3.75,0,0,1,3.35-1.86Z" transform="translate(-434.41 -451.82)"/><rect x="56.61" y="10.25" width="41.96" height="75.4" style="fill:#7375cf"/><path d="M493.69,499.78A47.87,47.87,0,0,1,512,462.07a48,48,0,1,0,0,75.4A47.87,47.87,0,0,1,493.69,499.78Z" transform="translate(-434.41 -451.82)" style="fill:#eb001b"/><path d="M589.59,499.78A48,48,0,0,1,512,537.48a48,48,0,0,0,0-75.4,48,48,0,0,1,77.59,37.7Z" transform="translate(-434.41 -451.82)" style="fill:#00a2e5"/></svg>